<svg width="477" height="477" viewBox="0 0 477 477" fill="none" xmlns="http://www.w3.org/2000/svg">
<g opacity="0.15">
<path d="M238.056 458.69C359.911 458.69 458.694 359.907 458.694 238.052C458.694 116.197 359.911 17.4141 238.056 17.4141C116.201 17.4141 17.418 116.197 17.418 238.052C17.418 359.907 116.201 458.69 238.056 458.69Z" stroke="#1F87D2" stroke-width="1.11111" stroke-miterlimit="10"/>
<path d="M238.055 475.555C369.222 475.555 475.555 369.222 475.555 238.055C475.555 106.887 369.222 0.554688 238.055 0.554688C106.887 0.554688 0.554688 106.887 0.554688 238.055C0.554688 369.222 106.887 475.555 238.055 475.555Z" stroke="#1F87D2" stroke-width="1.11111" stroke-miterlimit="10"/>
<path d="M238.054 358.116C304.36 358.116 358.112 304.364 358.112 238.058C358.112 171.752 304.36 118 238.054 118C171.748 118 117.996 171.752 117.996 238.058C117.996 304.364 171.748 358.116 238.054 358.116Z" stroke="#1F87D2" stroke-width="1.11111" stroke-miterlimit="10"/>
<path d="M238.056 346.104C297.731 346.104 346.108 297.727 346.108 238.052C346.108 178.376 297.731 130 238.056 130C178.38 130 130.004 178.376 130.004 238.052C130.004 297.727 178.38 346.104 238.056 346.104Z" stroke="#1F87D2" stroke-width="1.11111" stroke-miterlimit="10"/>
<path d="M238.055 238.052V17.4141" stroke="#1F87D2" stroke-width="1.11111" stroke-miterlimit="10"/>
<path d="M238.053 238.055L127.734 46.9766" stroke="#1F87D2" stroke-width="1.11111" stroke-miterlimit="10"/>
<path d="M238.055 238.053L46.9766 127.734" stroke="#1F87D2" stroke-width="1.11111" stroke-miterlimit="10"/>
<path d="M238.056 238.055H17.418" stroke="#1F87D2" stroke-width="1.11111" stroke-miterlimit="10"/>
<path d="M238.055 238.055L46.9766 348.374" stroke="#1F87D2" stroke-width="1.11111" stroke-miterlimit="10"/>
<path d="M238.053 238.055L127.734 429.133" stroke="#1F87D2" stroke-width="1.11111" stroke-miterlimit="10"/>
<path d="M238.055 238.055V458.692" stroke="#1F87D2" stroke-width="1.11111" stroke-miterlimit="10"/>
<path d="M238.055 238.055L348.374 429.133" stroke="#1F87D2" stroke-width="1.11111" stroke-miterlimit="10"/>
<path d="M238.055 238.055L429.133 348.374" stroke="#1F87D2" stroke-width="1.11111" stroke-miterlimit="10"/>
<path d="M238.055 238.055H458.692" stroke="#1F87D2" stroke-width="1.11111" stroke-miterlimit="10"/>
<path d="M238.055 238.053L429.133 127.734" stroke="#1F87D2" stroke-width="1.11111" stroke-miterlimit="10"/>
<path d="M238.055 238.055L348.374 46.9766" stroke="#1F87D2" stroke-width="1.11111" stroke-miterlimit="10"/>
<path d="M262.434 68.2352C261.86 63.6887 265.508 51.0975 271.716 58.3065C275.415 62.6004 274.885 70.9549 274.759 76.2467C274.565 84.2526 273.591 92.3213 272.029 100.176C271.671 101.972 274.426 102.742 274.785 100.936C277.216 88.7156 279.673 74.1924 276.468 61.9647C275.264 57.3725 271.911 52.2315 266.442 53.7703C260.385 55.4748 258.899 62.869 259.577 68.2363C259.802 70.0357 262.663 70.0586 262.434 68.2352Z" fill="#1F87D2"/>
<path d="M301.545 79.4936C304.843 75.0739 307.446 67.347 302.344 63.044C297.449 58.9148 291.56 63.6442 288.372 67.5242C280.752 76.7979 275.865 88.8872 272.032 100.182C271.44 101.928 274.2 102.677 274.788 100.942C277.046 94.29 279.803 87.752 282.994 81.4953C285.271 77.03 287.8 72.2628 291.227 68.5588C294.013 65.5476 299.244 61.6893 301.789 67.2533C303.48 70.9481 301.264 75.122 299.078 78.052C297.977 79.5256 300.457 80.9523 301.545 79.4936Z" fill="#1F87D2"/>
<path d="M359.866 137.682C354.583 142.554 346.454 142.916 341.22 137.682C336.139 132.601 336.142 124.115 341.22 119.037C346.261 113.996 354.832 113.902 359.866 119.037C365.056 124.331 364.784 132.35 359.866 137.682C358.621 139.032 360.636 141.059 361.887 139.703C367.818 133.273 368.218 123.397 361.887 117.015C355.757 110.839 345.329 110.839 339.199 117.015C333.053 123.209 333.012 133.515 339.199 139.703C345.559 146.063 355.473 145.618 361.887 139.703C363.242 138.454 361.217 136.436 359.866 137.682Z" fill="#1F87D2"/>
<path d="M353.371 88.0153C361.838 97.4124 351.964 109.921 359.877 119.015C361.087 120.406 363.101 118.376 361.898 116.994C357.532 111.977 360.322 105.047 360.362 99.1283C360.396 93.9862 358.852 89.8341 355.392 85.9941C354.158 84.6257 352.142 86.6514 353.371 88.0153Z" fill="#1F87D2"/>
<path d="M392.898 123.516C389.057 120.056 384.925 118.495 379.764 118.547C373.838 118.606 366.916 121.378 361.898 117.01C360.516 115.808 358.486 117.821 359.876 119.031C368.965 126.941 381.483 117.074 390.877 125.537C392.239 126.765 394.267 124.75 392.898 123.516Z" fill="#1F87D2"/>
<path d="M421.243 182.141C408.608 185.526 395.974 188.912 383.34 192.298C381.566 192.773 382.318 195.531 384.101 195.054C396.735 191.669 409.369 188.283 422.003 184.898C423.778 184.422 423.024 181.663 421.243 182.141Z" fill="#1F87D2"/>
<path d="M424.419 194.016C411.784 197.401 399.151 200.788 386.516 204.173C384.742 204.648 385.494 207.406 387.276 206.929C399.911 203.544 412.544 200.158 425.179 196.773C426.953 196.296 426.2 193.538 424.419 194.016Z" fill="#1F87D2"/>
<path d="M421.483 167.387C418.827 174.668 419.998 182.621 421.862 189.95C422.314 191.731 425.072 190.977 424.618 189.19C422.87 182.316 421.748 174.975 424.239 168.147C424.87 166.416 422.11 165.67 421.483 167.387Z" fill="#1F87D2"/>
<path d="M434.831 207.63C429.244 203.019 426.518 195.984 424.624 189.189C424.131 187.419 421.373 188.171 421.868 189.949C423.883 197.181 426.865 204.745 432.808 209.651C434.218 210.813 436.25 208.802 434.831 207.63Z" fill="#1F87D2"/>
<path d="M387.103 221.916C389.757 214.635 388.588 206.681 386.724 199.352C386.272 197.571 383.514 198.326 383.968 200.113C385.716 206.987 386.838 214.327 384.347 221.156C383.716 222.886 386.476 223.633 387.103 221.916Z" fill="#1F87D2"/>
<path d="M373.767 181.668C379.354 186.278 382.079 193.314 383.974 200.109C384.466 201.878 387.225 201.126 386.73 199.349C384.715 192.117 381.733 184.552 375.788 179.647C374.38 178.484 372.347 180.495 373.767 181.668Z" fill="#1F87D2"/>
<path d="M183.503 84.7487C192.328 82.3846 201.153 80.0193 209.978 77.6552C211.752 77.1796 211 74.4222 209.217 74.8989C200.392 77.263 191.568 79.6283 182.743 81.9925C180.968 82.4692 181.721 85.2266 183.503 84.7487Z" fill="#1F87D2"/>
<path d="M175.909 61.2889C183.266 66.1955 187.771 73.0296 190.184 81.5087C190.687 83.275 193.445 82.5239 192.94 80.7485C190.32 71.54 185.336 64.1446 177.351 58.8208C175.817 57.7987 174.384 60.2726 175.909 61.2889Z" fill="#1F87D2"/>
<path d="M190.401 107.571C194.648 98.9098 195.237 90.098 192.939 80.7535C192.5 78.9678 189.743 79.7246 190.183 81.5137C192.304 90.1369 191.85 98.1404 187.933 106.129C187.127 107.774 189.591 109.224 190.401 107.571Z" fill="#1F87D2"/>
<path d="M202.505 52.0654C198.258 60.7263 197.67 69.5381 199.967 78.8826C200.406 80.6683 203.164 79.9115 202.724 78.1224C200.603 69.4992 201.057 61.4957 204.973 53.507C205.779 51.8619 203.316 50.4124 202.505 52.0654Z" fill="#1F87D2"/>
<path d="M216.995 98.3437C209.638 93.4371 205.133 86.6031 202.72 78.124C202.217 76.3577 199.459 77.1088 199.964 78.8842C202.585 88.0927 207.568 95.488 215.553 100.812C217.088 101.835 218.52 99.36 216.995 98.3437Z" fill="#1F87D2"/>
<path d="M369.296 350.988C373.175 346.783 373.437 340.318 369.296 336.146C365.289 332.108 358.461 332.108 354.454 336.146C350.435 340.196 350.408 346.942 354.454 350.988C358.613 355.146 365.102 354.856 369.296 350.988C370.651 349.738 368.626 347.72 367.275 348.967C364.213 351.79 359.507 351.999 356.475 348.967C353.531 346.023 353.532 341.109 356.475 338.167C359.399 335.242 364.354 335.196 367.275 338.167C370.286 341.229 370.12 345.881 367.275 348.967C366.03 350.317 368.046 352.344 369.296 350.988Z" fill="#1F87D2"/>
<path d="M354.459 351.025C357.454 353.612 360.754 354.455 364.458 355.634C371.367 357.834 379.788 364.552 376.532 372.828C372.824 382.252 362.282 381.55 356.19 375.35C351.849 370.931 349.678 365.022 348.433 359.079C347.273 353.535 347.151 346.364 341.293 343.502C335.156 340.504 330.724 345.731 328.81 351.035C328.185 352.768 330.946 353.515 331.567 351.795C332.738 348.547 335.081 344.439 339.271 345.748C341.824 346.546 343.235 348.957 343.989 351.345C345.375 355.744 345.559 360.45 346.968 364.869C349.63 373.22 356.501 383.56 366.431 383.134C374.456 382.789 381.394 375.119 379.815 367.046C378.951 362.626 375.992 358.675 372.356 356.123C367.505 352.72 360.978 352.888 356.481 349.005C355.095 347.807 353.064 349.82 354.459 351.025Z" fill="#1F87D2"/>
<path d="M408.836 275.191C399.528 272.153 403.235 257.892 412.768 260.434C422.304 262.975 418.423 277.215 408.836 275.191C407.042 274.813 406.275 277.567 408.075 277.948C413.654 279.125 419.392 276.278 420.936 270.54C422.415 265.047 419.042 259.136 413.527 257.679C408.185 256.267 402.5 259.342 400.82 264.617C398.957 270.461 402.462 276.116 408.074 277.948C409.828 278.519 410.579 275.761 408.836 275.191Z" fill="#1F87D2"/>
<path d="M412.767 260.437C423.714 264.086 421.034 280.931 418.138 289.114C416.039 295.042 412.396 301.357 407.23 305.183C405.768 306.266 407.193 308.748 408.673 307.651C416.02 302.211 420.575 293.079 422.403 284.329C424.352 274.997 424.413 261.311 413.526 257.682C411.778 257.099 411.028 259.858 412.767 260.437Z" fill="#1F87D2"/>
<path d="M395.57 285.8C404.878 288.838 401.17 303.098 391.637 300.557C382.102 298.016 385.983 283.776 395.57 285.8C397.364 286.178 398.131 283.424 396.33 283.043C390.751 281.866 385.014 284.712 383.469 290.451C381.991 295.944 385.363 301.855 390.877 303.312C396.219 304.724 401.904 301.649 403.585 296.374C405.447 290.53 401.942 284.876 396.33 283.043C394.578 282.472 393.827 285.23 395.57 285.8Z" fill="#1F87D2"/>
<path d="M391.632 300.557C380.685 296.908 383.364 280.063 386.261 271.881C388.359 265.953 392.002 259.638 397.169 255.812C398.631 254.729 397.207 252.247 395.726 253.344C388.379 258.784 383.824 267.916 381.996 276.666C380.047 285.998 379.985 299.685 390.873 303.313C392.621 303.896 393.371 301.136 391.632 300.557Z" fill="#1F87D2"/>
<path d="M297.927 414.026C297.289 416.286 296.648 418.63 295.489 420.693C294.459 422.527 292.441 423.385 290.606 421.475C289.777 420.612 289.448 418.264 289.087 417.019C288.112 413.655 287.271 410.245 286.365 406.863C284.856 401.234 283.348 395.603 281.839 389.973C281.363 388.199 278.606 388.951 279.082 390.733C281.434 399.511 283.787 408.289 286.138 417.067C287.056 420.495 287.993 424.984 292.02 425.947C297.52 427.263 299.634 418.501 300.681 414.787C301.183 413.012 298.425 412.255 297.927 414.026Z" fill="#1F87D2"/>
<path d="M304.875 420.259C299.849 418.724 298.464 405.762 297.313 401.463C296.01 396.602 294.707 391.74 293.405 386.879C292.93 385.105 290.172 385.857 290.649 387.64C292.359 394.022 294.069 400.405 295.78 406.787C297.242 412.244 297.82 421.093 304.116 423.014C305.879 423.553 306.632 420.796 304.875 420.259Z" fill="#1F87D2"/>
<path d="M286.361 417.138C285.717 419.424 284.838 424.486 282.641 425.736C279.472 427.537 278.457 423.306 277.963 421.776C277.396 420.021 277.002 418.189 276.525 416.408C275.147 411.265 273.769 406.121 272.39 400.977C270.557 394.133 268.995 386.657 261.267 384.147C259.513 383.578 258.762 386.336 260.507 386.904C265.657 388.576 267.376 393.31 268.625 397.969C270.296 404.205 271.966 410.441 273.638 416.677C274.687 420.593 275.236 426.311 279.113 428.493C285.26 431.952 287.977 421.945 289.118 417.899C289.618 416.124 286.861 415.367 286.361 417.138Z" fill="#1F87D2"/>
<path d="M273.13 414.021C272.911 415.052 272.287 419.27 271.409 419.852C269.322 421.235 268.258 418.385 267.816 417.065C266.831 414.13 266.241 410.821 266.22 407.73C266.16 399.487 271.139 392.045 276.53 386.248C277.782 384.902 275.765 382.876 274.509 384.226C265.913 393.47 261.127 404.589 264.842 417.135C265.616 419.748 267.022 424.113 270.51 423.83C274.431 423.513 275.285 417.603 275.886 414.781C276.268 412.986 273.513 412.22 273.13 414.021Z" fill="#1F87D2"/>
<path d="M203.49 403.627C207.197 413.312 198.919 423.963 188.433 419.981C179.121 416.444 178.685 404.712 185.981 398.926C187.422 397.784 185.387 395.773 183.96 396.905C174.774 404.189 176.503 419.22 188.156 422.959C200.533 426.931 210.663 414.413 206.246 402.867C205.596 401.165 202.832 401.904 203.49 403.627Z" fill="#1F87D2"/>
<path d="M204.478 404.647C208.746 405.791 213.016 406.935 217.285 408.079C219.064 408.556 219.823 405.799 218.045 405.323C213.776 404.178 209.506 403.035 205.238 401.891C203.459 401.415 202.7 404.172 204.478 404.647Z" fill="#1F87D2"/>
<path d="M174.681 385.046C189.852 389.111 205.022 393.175 220.192 397.24C221.971 397.717 222.729 394.961 220.953 394.484C205.782 390.419 190.612 386.355 175.442 382.29C173.662 381.813 172.903 384.569 174.681 385.046Z" fill="#1F87D2"/>
<path d="M171.778 395.858C176.047 397.002 180.317 398.146 184.586 399.29C186.364 399.767 187.123 397.01 185.346 396.534C181.077 395.389 176.807 394.246 172.539 393.102C170.76 392.626 170.001 395.382 171.778 395.858Z" fill="#1F87D2"/>
<path d="M112.835 378.351C111.006 378.815 109.255 379.233 107.376 379.408C106.108 379.627 104.836 379.632 103.559 379.426C103.79 377.544 104.019 375.662 104.25 373.779C104.583 373.116 105.555 372.475 106.083 371.947C108.62 369.41 111.155 366.874 113.692 364.338C117.673 360.357 121.654 356.376 125.635 352.395C126.937 351.092 124.917 349.071 123.614 350.373C117.279 356.708 110.945 363.042 104.612 369.376C102.03 371.957 97.8359 375.608 99.7096 379.749C101.854 384.487 109.987 382.022 113.595 381.106C115.376 380.655 114.621 377.897 112.835 378.351Z" fill="#1F87D2"/>
<path d="M110.936 387.46C110.468 385.234 112.647 382.631 114.009 380.96C114.746 380.058 115.712 379.257 116.532 378.437C118.977 375.992 121.42 373.549 123.864 371.105C127.277 367.692 130.692 364.277 134.106 360.863C135.408 359.561 133.388 357.54 132.084 358.842C127.581 363.345 123.078 367.848 118.575 372.351C114.414 376.514 106.783 381.582 108.18 388.219C108.56 390.018 111.315 389.257 110.936 387.46Z" fill="#1F87D2"/>
<path d="M104.367 369.881C101.919 370.502 97.4859 372.125 95.0908 370.955C90.3134 368.621 95.587 365.877 96.6856 364.405C97.814 362.895 99.4853 361.606 100.814 360.277C104.705 356.386 108.597 352.494 112.488 348.603C114.446 346.645 117.234 344.602 118.38 341.977C120.116 338.004 117.923 333.675 114.986 330.921C113.645 329.663 111.62 331.68 112.965 332.942C118.296 337.94 115.106 341.941 111.159 345.89C106.796 350.252 102.434 354.615 98.07 358.979C95.2395 361.809 90.6084 365.144 90.917 369.608C91.38 376.317 101.172 373.641 105.126 372.637C106.908 372.185 106.154 369.427 104.367 369.881Z" fill="#1F87D2"/>
<path d="M108.426 328.133C109.016 330.334 109.606 332.535 110.196 334.737C110.475 335.778 111.828 336.124 112.584 335.368C114.196 333.756 115.807 332.145 117.419 330.533C118.175 329.776 117.829 328.424 116.788 328.145C114.586 327.555 112.385 326.965 110.183 326.375C108.405 325.899 107.647 328.655 109.423 329.132C111.625 329.722 113.826 330.312 116.027 330.901C115.817 330.106 115.607 329.309 115.397 328.513C113.786 330.125 112.175 331.736 110.563 333.348C111.359 333.558 112.155 333.769 112.951 333.979C112.361 331.777 111.771 329.576 111.181 327.375C110.707 325.598 107.95 326.35 108.426 328.133Z" fill="#1F87D2"/>
<path d="M88.3124 291.931C75.5097 284.54 62.7081 277.148 49.9054 269.757C48.3095 268.836 46.8691 271.305 48.4627 272.225C61.2654 279.617 74.067 287.008 86.8697 294.399C88.4656 295.32 89.9071 292.852 88.3124 291.931Z" fill="#1F87D2"/>
<path d="M55.8066 290.192C54.0552 283.658 52.3049 277.122 50.5535 270.587C50.2209 271.174 49.8882 271.759 49.5555 272.346C56.0901 270.594 62.6257 268.844 69.1603 267.093C70.9345 266.617 70.1823 263.86 68.4 264.336C61.8655 266.088 55.3298 267.838 48.7953 269.589C48.0454 269.791 47.5984 270.603 47.7973 271.348C49.5487 277.882 51.2989 284.418 53.0503 290.952C53.527 292.727 56.2844 291.974 55.8066 290.192Z" fill="#1F87D2"/>
<path d="M71.0769 295.588C74.5271 289.611 77.9773 283.636 81.4286 277.659C82.35 276.063 79.8807 274.623 78.9604 276.217C75.5103 282.193 72.0601 288.169 68.6088 294.145C67.6873 295.741 70.1566 297.182 71.0769 295.588Z" fill="#1F87D2"/>
<path d="M48.9892 210.629C52.7172 200.629 68.3299 208.086 75.6887 210.112C77.4641 210.6 78.222 207.844 76.4489 207.356C67.0118 204.758 51.1156 196.772 46.233 209.869C45.5905 211.595 48.3513 212.34 48.9892 210.629Z" fill="#1F87D2"/>
<path d="M58.452 202.595C55.9301 200.83 52.8457 198.395 53.7763 195.079C54.8074 191.407 58.6086 192.248 61.5592 192.887C64.136 193.445 66.6807 194.259 69.2289 194.943C73.9058 196.196 78.969 198.379 83.8859 197.609C92.4645 196.264 99.8896 185.326 91.95 178.341C84.134 171.466 74.0327 180.53 76.4894 189.461C77.4725 193.035 80.2951 195.636 83.168 197.773C85.3343 199.384 92.7057 202.623 92.0301 205.97C91.6677 207.766 94.4216 208.534 94.7863 206.73C95.8849 201.292 88.9937 198.457 85.4315 195.897C81.5995 193.143 77.7972 189.375 79.3119 184.198C82.1277 174.578 94.3851 179.631 91.9866 188.098C90.8949 191.95 87.1017 194.251 83.3269 194.771C78.3505 195.456 72.5774 192.882 67.8148 191.605C63.9416 190.567 59.2854 188.552 55.2693 189.787C46.2574 192.556 51.9769 201.543 57.0104 205.065C58.5194 206.12 59.9496 203.644 58.452 202.595Z" fill="#1F87D2"/>
<path d="M125.062 97.3071C120.622 96.3583 116.183 95.4083 111.743 94.4594C110.648 94.2251 109.75 95.1213 109.985 96.2177C110.935 100.657 111.885 105.096 112.834 109.536C113.42 108.949 114.005 108.364 114.592 107.778C110.153 106.828 105.713 105.879 101.274 104.929C100.177 104.694 99.2821 105.591 99.5153 106.687C100.463 111.128 101.412 115.57 102.36 120.01C102.946 119.423 103.531 118.838 104.118 118.252C99.6754 117.305 95.2329 116.359 90.7916 115.411C89.6953 115.178 88.8001 116.073 89.0333 117.169C89.9799 121.612 90.9276 126.054 91.8742 130.495C92.2572 132.294 95.0134 131.532 94.6305 129.735C93.6839 125.293 92.7362 120.85 91.7896 116.409C91.2043 116.995 90.6178 117.581 90.0314 118.167C94.4738 119.114 98.9163 120.061 103.358 121.008C104.453 121.241 105.349 120.346 105.116 119.25C104.168 114.808 103.219 110.367 102.272 105.927C101.686 106.513 101.1 107.099 100.513 107.685C104.952 108.635 109.393 109.584 113.832 110.534C114.927 110.768 115.824 109.872 115.59 108.776C114.64 104.337 113.69 99.8976 112.741 95.4574C112.155 96.0428 111.569 96.6292 110.983 97.2157C115.423 98.1645 119.862 99.1145 124.302 100.063C126.097 100.446 126.863 97.6924 125.062 97.3071Z" fill="#1F87D2"/>
<path d="M136.871 109.127C132.431 108.179 127.992 107.229 123.552 106.28C122.456 106.045 121.559 106.942 121.793 108.038C122.743 112.477 123.693 116.916 124.642 121.356C125.229 120.77 125.814 120.184 126.4 119.598C121.961 118.648 117.521 117.699 113.082 116.749C111.987 116.515 111.091 117.411 111.324 118.507C112.272 122.949 113.221 127.39 114.168 131.83C114.755 131.244 115.34 130.658 115.926 130.072C111.484 129.125 107.042 128.179 102.6 127.231C101.504 126.998 100.609 127.893 100.842 128.989C101.789 133.432 102.735 137.874 103.683 142.316C104.066 144.114 106.822 143.353 106.439 141.555C105.492 137.113 104.546 132.671 103.598 128.229C103.013 128.815 102.426 129.401 101.84 129.987C106.282 130.934 110.725 131.882 115.166 132.828C116.261 133.062 117.158 132.166 116.924 131.07C115.977 126.629 115.028 122.189 114.08 117.747C113.494 118.334 112.908 118.919 112.322 119.505C116.761 120.455 121.201 121.404 125.64 122.354C126.735 122.589 127.633 121.692 127.398 120.596C126.448 116.157 125.498 111.718 124.548 107.278C123.963 107.863 123.377 108.45 122.79 109.036C127.23 109.985 131.67 110.935 136.11 111.884C137.905 112.268 138.672 109.513 136.871 109.127Z" fill="#1F87D2"/>
<path d="M238.056 129.992L144.469 292.09H331.643L238.056 129.992Z" stroke="#1F87D2" stroke-width="1.11111" stroke-miterlimit="10"/>
<path d="M238.056 346.794L331.643 184.695H144.469L238.056 346.794Z" stroke="#1F87D2" stroke-width="1.11111" stroke-miterlimit="10"/>
<path d="M183.855 144.516V331.691L345.954 238.103L183.855 144.516Z" stroke="#1F87D2" stroke-width="1.11111" stroke-miterlimit="10"/>
<path d="M292.255 332.261V145.086L130.156 238.674L292.255 332.261Z" stroke="#1F87D2" stroke-width="1.11111" stroke-miterlimit="10"/>
</g>
</svg>
