<svg width="305" height="305" viewBox="0 0 305 305" fill="none" xmlns="http://www.w3.org/2000/svg">
<g opacity="0.15">
<path d="M152.361 293.565C230.348 293.565 293.569 230.344 293.569 152.357C293.569 74.3695 230.348 11.1484 152.361 11.1484C74.3734 11.1484 11.1523 74.3695 11.1523 152.357C11.1523 230.344 74.3734 293.565 152.361 293.565Z" stroke="#4FD21F" stroke-width="0.711111" stroke-miterlimit="10"/>
<path d="M152.355 304.359C236.303 304.359 304.355 236.307 304.355 152.359C304.355 68.4121 236.303 0.359375 152.355 0.359375C68.4082 0.359375 0.355469 68.4121 0.355469 152.359C0.355469 236.307 68.4082 304.359 152.355 304.359Z" stroke="#4FD21F" stroke-width="0.711111" stroke-miterlimit="10"/>
<path d="M152.357 229.197C194.792 229.197 229.194 194.796 229.194 152.36C229.194 109.925 194.792 75.5234 152.357 75.5234C109.921 75.5234 75.5195 109.925 75.5195 152.36C75.5195 194.796 109.921 229.197 152.357 229.197Z" stroke="#4FD21F" stroke-width="0.711111" stroke-miterlimit="10"/>
<path d="M152.36 221.51C190.553 221.51 221.513 190.549 221.513 152.356C221.513 114.164 190.553 83.2031 152.36 83.2031C114.168 83.2031 83.207 114.164 83.207 152.356C83.207 190.549 114.168 221.51 152.36 221.51Z" stroke="#4FD21F" stroke-width="0.711111" stroke-miterlimit="10"/>
<path d="M152.355 152.357V11.1484" stroke="#4FD21F" stroke-width="0.711111" stroke-miterlimit="10"/>
<path d="M152.354 152.36L81.75 30.0703" stroke="#4FD21F" stroke-width="0.711111" stroke-miterlimit="10"/>
<path d="M152.356 152.362L30.0664 81.7578" stroke="#4FD21F" stroke-width="0.711111" stroke-miterlimit="10"/>
<path d="M152.361 152.359H11.1523" stroke="#4FD21F" stroke-width="0.711111" stroke-miterlimit="10"/>
<path d="M152.356 152.359L30.0664 222.963" stroke="#4FD21F" stroke-width="0.711111" stroke-miterlimit="10"/>
<path d="M152.354 152.359L81.75 274.649" stroke="#4FD21F" stroke-width="0.711111" stroke-miterlimit="10"/>
<path d="M152.355 152.359V293.568" stroke="#4FD21F" stroke-width="0.711111" stroke-miterlimit="10"/>
<path d="M152.355 152.359L222.96 274.649" stroke="#4FD21F" stroke-width="0.711111" stroke-miterlimit="10"/>
<path d="M152.355 152.359L274.645 222.963" stroke="#4FD21F" stroke-width="0.711111" stroke-miterlimit="10"/>
<path d="M152.355 152.359H293.564" stroke="#4FD21F" stroke-width="0.711111" stroke-miterlimit="10"/>
<path d="M152.355 152.362L274.645 81.7578" stroke="#4FD21F" stroke-width="0.711111" stroke-miterlimit="10"/>
<path d="M152.355 152.36L222.96 30.0703" stroke="#4FD21F" stroke-width="0.711111" stroke-miterlimit="10"/>
<path d="M167.96 43.6777C167.593 40.7679 169.928 32.7096 173.901 37.3233C176.268 40.0714 175.929 45.4183 175.848 48.8051C175.724 53.9288 175.101 59.0928 174.101 64.12C173.872 65.2694 175.635 65.7618 175.865 64.6065C177.421 56.7852 178.993 47.4903 176.942 39.6646C176.172 36.7256 174.026 33.4354 170.525 34.4202C166.649 35.511 165.698 40.2433 166.132 43.6784C166.276 44.8301 168.107 44.8447 167.96 43.6777Z" fill="#4FD21F"/>
<path d="M192.992 50.879C195.103 48.0504 196.769 43.1052 193.503 40.3513C190.371 37.7086 186.602 40.7354 184.561 43.2186C179.685 49.1538 176.557 56.891 174.104 64.1196C173.725 65.2369 175.491 65.7161 175.868 64.6062C177.313 60.3487 179.077 56.1644 181.12 52.1601C182.577 49.3023 184.195 46.2513 186.389 43.8808C188.172 41.9536 191.519 39.4843 193.149 43.0452C194.231 45.4099 192.812 48.0812 191.413 49.9564C190.709 50.8995 192.295 51.8126 192.992 50.879Z" fill="#4FD21F"/>
<path d="M230.316 88.1213C226.935 91.2395 221.732 91.4707 218.382 88.1213C215.13 84.8691 215.132 79.4381 218.382 76.1881C221.608 72.9622 227.094 72.9022 230.316 76.1881C233.637 79.5763 233.463 84.7088 230.316 88.1213C229.519 88.9853 230.809 90.2825 231.609 89.4148C235.405 85.2993 235.661 78.9786 231.609 74.8945C227.686 70.9414 221.012 70.9414 217.089 74.8945C213.155 78.8586 213.129 85.4544 217.089 89.4148C221.159 93.485 227.504 93.2004 231.609 89.4148C232.476 88.6151 231.18 87.3238 230.316 88.1213Z" fill="#4FD21F"/>
<path d="M226.159 56.3348C231.578 62.3489 225.258 70.3546 230.323 76.1749C231.097 77.0646 232.386 75.7659 231.616 74.8813C228.822 71.6701 230.608 67.2349 230.633 63.4471C230.655 60.1562 229.667 57.4988 227.453 55.0412C226.662 54.1654 225.373 55.4619 226.159 56.3348Z" fill="#4FD21F"/>
<path d="M251.459 79.0567C249.001 76.842 246.357 75.8433 243.054 75.8762C239.261 75.9142 234.831 77.6885 231.619 74.8929C230.735 74.1232 229.436 75.4116 230.326 76.1864C236.142 81.2487 244.154 74.9338 250.166 80.3502C251.038 81.136 252.336 79.8461 251.459 79.0567Z" fill="#4FD21F"/>
<path d="M269.597 116.575C261.511 118.741 253.425 120.908 245.339 123.074C244.204 123.379 244.685 125.144 245.826 124.838C253.912 122.672 261.997 120.505 270.084 118.339C271.219 118.034 270.737 116.269 269.597 116.575Z" fill="#4FD21F"/>
<path d="M271.632 124.176C263.546 126.342 255.461 128.51 247.374 130.676C246.239 130.98 246.72 132.745 247.861 132.44C255.947 130.274 264.033 128.106 272.119 125.94C273.254 125.635 272.772 123.87 271.632 124.176Z" fill="#4FD21F"/>
<path d="M269.748 107.13C268.048 111.79 268.798 116.88 269.99 121.571C270.28 122.711 272.045 122.228 271.754 121.084C270.636 116.685 269.918 111.987 271.512 107.617C271.916 106.509 270.149 106.031 269.748 107.13Z" fill="#4FD21F"/>
<path d="M278.295 132.885C274.719 129.935 272.975 125.432 271.763 121.083C271.447 119.951 269.682 120.432 269.999 121.57C271.289 126.198 273.197 131.039 277.001 134.179C277.903 134.923 279.204 133.636 278.295 132.885Z" fill="#4FD21F"/>
<path d="M247.749 142.029C249.448 137.369 248.7 132.279 247.507 127.588C247.217 126.448 245.453 126.931 245.743 128.075C246.862 132.474 247.58 137.172 245.985 141.542C245.581 142.65 247.348 143.128 247.749 142.029Z" fill="#4FD21F"/>
<path d="M239.215 116.275C242.79 119.226 244.535 123.729 245.747 128.077C246.062 129.21 247.828 128.729 247.511 127.591C246.221 122.962 244.313 118.121 240.508 114.982C239.607 114.238 238.306 115.525 239.215 116.275Z" fill="#4FD21F"/>
<path d="M117.443 54.2454C123.091 52.7324 128.739 51.2186 134.387 49.7056C135.522 49.4012 135.041 47.6364 133.9 47.9415C128.252 49.4546 122.604 50.9684 116.957 52.4814C115.82 52.7865 116.303 54.5513 117.443 54.2454Z" fill="#4FD21F"/>
<path d="M112.585 39.2349C117.293 42.3751 120.176 46.7489 121.721 52.1756C122.043 53.306 123.808 52.8253 123.485 51.689C121.808 45.7956 118.618 41.0626 113.508 37.6553C112.526 37.0012 111.609 38.5845 112.585 39.2349Z" fill="#4FD21F"/>
<path d="M121.858 68.8465C124.576 63.3035 124.953 57.664 123.482 51.6835C123.201 50.5406 121.436 51.025 121.718 52.17C123.075 57.6888 122.785 62.8111 120.278 67.9239C119.762 68.9767 121.339 69.9044 121.858 68.8465Z" fill="#4FD21F"/>
<path d="M129.602 33.3263C126.884 38.8692 126.507 44.5088 127.978 50.4893C128.259 51.6321 130.024 51.1477 129.742 50.0027C128.385 44.4839 128.675 39.3616 131.182 34.2489C131.698 33.196 130.121 32.2683 129.602 33.3263Z" fill="#4FD21F"/>
<path d="M138.877 62.9444C134.168 59.8041 131.285 55.4303 129.741 50.0037C129.419 48.8733 127.653 49.354 127.977 50.4902C129.655 56.3837 132.844 61.1167 137.954 64.524C138.936 65.1788 139.853 63.5948 138.877 62.9444Z" fill="#4FD21F"/>
<path d="M236.352 224.632C238.835 221.941 239.002 217.804 236.352 215.133C233.788 212.549 229.418 212.549 226.853 215.133C224.282 217.726 224.264 222.043 226.853 224.632C229.515 227.293 233.668 227.108 236.352 224.632C237.219 223.833 235.924 222.541 235.059 223.339C233.099 225.146 230.087 225.28 228.147 223.339C226.263 221.455 226.264 218.31 228.147 216.427C230.018 214.555 233.189 214.525 235.059 216.427C236.986 218.387 236.88 221.364 235.059 223.339C234.262 224.203 235.553 225.5 236.352 224.632Z" fill="#4FD21F"/>
<path d="M226.853 224.657C228.77 226.313 230.881 226.853 233.252 227.607C237.674 229.015 243.063 233.315 240.979 238.611C238.606 244.643 231.859 244.194 227.96 240.225C225.182 237.397 223.793 233.615 222.996 229.812C222.254 226.264 222.175 221.674 218.426 219.843C214.499 217.924 211.662 221.269 210.437 224.664C210.037 225.773 211.804 226.251 212.202 225.15C212.951 223.072 214.451 220.442 217.132 221.28C218.767 221.79 219.669 223.334 220.152 224.862C221.039 227.677 221.157 230.69 222.058 233.517C223.762 238.862 228.159 245.48 234.515 245.207C239.651 244.986 244.091 240.077 243.081 234.91C242.528 232.082 240.634 229.553 238.307 227.92C235.202 225.742 231.025 225.85 228.147 223.364C227.26 222.597 225.96 223.886 226.853 224.657Z" fill="#4FD21F"/>
<path d="M261.659 176.123C255.702 174.178 258.075 165.051 264.176 166.678C270.279 168.304 267.795 177.418 261.659 176.123C260.511 175.881 260.02 177.643 261.173 177.887C264.743 178.64 268.415 176.819 269.404 173.146C270.35 169.63 268.192 165.847 264.662 164.915C261.243 164.011 257.605 165.979 256.529 169.355C255.337 173.095 257.58 176.715 261.172 177.887C262.294 178.253 262.775 176.487 261.659 176.123Z" fill="#4FD21F"/>
<path d="M264.174 166.69C271.18 169.025 269.465 179.806 267.611 185.043C266.268 188.837 263.937 192.878 260.631 195.327C259.695 196.02 260.607 197.608 261.554 196.907C266.256 193.425 269.171 187.581 270.341 181.98C271.589 176.008 271.627 167.249 264.66 164.926C263.541 164.553 263.061 166.319 264.174 166.69Z" fill="#4FD21F"/>
<path d="M253.17 182.916C259.127 184.861 256.755 193.987 250.654 192.361C244.551 190.734 247.035 181.621 253.17 182.916C254.318 183.158 254.809 181.396 253.657 181.152C250.087 180.399 246.414 182.22 245.426 185.893C244.48 189.409 246.638 193.191 250.167 194.124C253.586 195.028 257.224 193.06 258.3 189.684C259.492 185.944 257.249 182.325 253.657 181.152C252.535 180.786 252.055 182.552 253.17 182.916Z" fill="#4FD21F"/>
<path d="M250.647 192.36C243.641 190.025 245.356 179.244 247.21 174.007C248.552 170.214 250.884 166.172 254.19 163.723C255.126 163.031 254.215 161.442 253.267 162.144C248.565 165.626 245.65 171.47 244.48 177.07C243.232 183.043 243.193 191.802 250.161 194.124C251.28 194.497 251.76 192.731 250.647 192.36Z" fill="#4FD21F"/>
<path d="M190.678 264.979C190.27 266.426 189.859 267.926 189.117 269.246C188.458 270.42 187.167 270.969 185.992 269.747C185.462 269.194 185.251 267.691 185.02 266.895C184.396 264.741 183.858 262.56 183.278 260.395C182.312 256.792 181.347 253.189 180.381 249.585C180.077 248.45 178.312 248.931 178.617 250.072C180.122 255.689 181.628 261.308 183.133 266.925C183.721 269.12 184.32 271.992 186.897 272.609C190.417 273.451 191.77 267.843 192.44 265.466C192.762 264.33 190.997 263.846 190.678 264.979Z" fill="#4FD21F"/>
<path d="M195.12 268.964C191.904 267.982 191.017 259.686 190.281 256.935C189.447 253.824 188.613 250.712 187.78 247.601C187.475 246.465 185.711 246.947 186.016 248.087C187.11 252.172 188.205 256.257 189.299 260.342C190.235 263.834 190.605 269.498 194.635 270.727C195.763 271.072 196.245 269.307 195.12 268.964Z" fill="#4FD21F"/>
<path d="M183.275 266.968C182.862 268.431 182.3 271.671 180.894 272.471C178.866 273.624 178.216 270.916 177.9 269.936C177.537 268.813 177.285 267.641 176.98 266.501C176.098 263.209 175.216 259.917 174.334 256.625C173.16 252.245 172.161 247.46 167.215 245.854C166.092 245.49 165.612 247.255 166.728 247.618C170.024 248.688 171.125 251.718 171.924 254.7C172.993 258.691 174.062 262.682 175.132 266.673C175.803 269.179 176.155 272.839 178.636 274.235C182.57 276.449 184.309 270.044 185.039 267.455C185.36 266.319 183.595 265.835 183.275 266.968Z" fill="#4FD21F"/>
<path d="M174.806 264.978C174.665 265.638 174.266 268.338 173.704 268.71C172.369 269.596 171.688 267.772 171.404 266.927C170.774 265.048 170.397 262.93 170.383 260.952C170.345 255.677 173.531 250.914 176.982 247.204C177.783 246.342 176.492 245.046 175.688 245.91C170.187 251.826 167.124 258.942 169.501 266.971C169.997 268.644 170.897 271.437 173.129 271.256C175.638 271.053 176.185 267.271 176.57 265.465C176.814 264.316 175.051 263.826 174.806 264.978Z" fill="#4FD21F"/>
<path d="M130.235 258.321C132.607 264.519 127.31 271.336 120.599 268.788C114.639 266.524 114.36 259.015 119.03 255.312C119.951 254.581 118.649 253.294 117.736 254.019C111.857 258.681 112.963 268.301 120.421 270.694C128.343 273.235 134.826 265.224 131.999 257.834C131.583 256.746 129.814 257.218 130.235 258.321Z" fill="#4FD21F"/>
<path d="M130.867 258.979C133.599 259.711 136.332 260.443 139.064 261.175C140.202 261.48 140.688 259.716 139.55 259.411C136.818 258.679 134.085 257.947 131.353 257.215C130.215 256.91 129.729 258.674 130.867 258.979Z" fill="#4FD21F"/>
<path d="M111.801 246.432C121.51 249.034 131.219 251.635 140.928 254.237C142.066 254.542 142.551 252.778 141.414 252.473C131.705 249.871 121.997 247.27 112.288 244.668C111.148 244.363 110.663 246.127 111.801 246.432Z" fill="#4FD21F"/>
<path d="M109.941 253.354C112.673 254.086 115.406 254.818 118.138 255.55C119.276 255.855 119.762 254.091 118.624 253.786C115.892 253.054 113.16 252.322 110.428 251.59C109.289 251.285 108.803 253.049 109.941 253.354Z" fill="#4FD21F"/>
<path d="M72.2187 242.143C71.0481 242.44 69.9279 242.708 68.7251 242.82C67.9137 242.96 67.0994 242.964 66.2821 242.831C66.4299 241.627 66.577 240.423 66.7248 239.218C66.9377 238.793 67.5596 238.383 67.8976 238.045C69.5211 236.421 71.1439 234.798 72.7675 233.175C75.3151 230.627 77.8634 228.08 80.411 225.531C81.2443 224.698 79.9515 223.404 79.1174 224.238C75.0634 228.292 71.0093 232.346 66.956 236.399C65.3039 238.051 62.6195 240.388 63.8187 243.038C65.1912 246.07 70.3962 244.493 72.7053 243.907C73.8452 243.618 73.3623 241.853 72.2187 242.143Z" fill="#4FD21F"/>
<path d="M71.0007 247.983C70.7007 246.558 72.0953 244.892 72.9674 243.823C73.4386 243.245 74.0568 242.733 74.5821 242.208C76.1464 240.644 77.7099 239.08 79.2742 237.516C81.4589 235.331 83.6443 233.146 85.829 230.961C86.6624 230.128 85.3695 228.834 84.5355 229.667C81.6535 232.549 78.7715 235.431 75.8896 238.313C73.2264 240.977 68.3426 244.221 69.2367 248.469C69.4796 249.62 71.2429 249.133 71.0007 247.983Z" fill="#4FD21F"/>
<path d="M66.7969 236.728C65.2305 237.125 62.3931 238.164 60.8603 237.415C57.8028 235.922 61.1779 234.165 61.881 233.223C62.6031 232.257 63.6728 231.432 64.523 230.581C67.0135 228.091 69.504 225.6 71.9946 223.11C73.2479 221.857 75.0316 220.549 75.7655 218.869C76.8761 216.327 75.4728 213.556 73.5932 211.793C72.735 210.989 71.4392 212.279 72.2997 213.087C75.7113 216.286 73.67 218.847 71.1437 221.374C68.3517 224.166 65.5597 226.958 62.767 229.75C60.9554 231.562 57.9915 233.696 58.1891 236.553C58.4854 240.847 64.752 239.134 67.2827 238.492C68.4234 238.202 67.9405 236.438 66.7969 236.728Z" fill="#4FD21F"/>
<path d="M69.3947 210.004C69.7722 211.413 70.1497 212.821 70.5273 214.23C70.7058 214.897 71.5721 215.118 72.0557 214.634C73.0873 213.603 74.1182 212.572 75.1498 211.54C75.6342 211.056 75.4125 210.19 74.746 210.012C73.3368 209.634 71.9284 209.257 70.5192 208.879C69.3808 208.574 68.8957 210.338 70.0327 210.643C71.4418 211.021 72.8502 211.398 74.2594 211.776C74.1248 211.266 73.9902 210.756 73.8563 210.247C72.8246 211.279 71.7937 212.31 70.7621 213.341C71.2714 213.476 71.7813 213.611 72.2905 213.745C71.913 212.336 71.5355 210.928 71.1579 209.519C70.8543 208.382 69.0896 208.863 69.3947 210.004Z" fill="#4FD21F"/>
<path d="M56.5255 186.844C48.3318 182.114 40.1388 177.383 31.9451 172.653C30.9237 172.063 30.0018 173.644 31.0217 174.233C39.2155 178.964 47.4085 183.694 55.6022 188.424C56.6236 189.013 57.5462 187.434 56.5255 186.844Z" fill="#4FD21F"/>
<path d="M35.7187 185.731C34.5978 181.549 33.4777 177.367 32.3568 173.184C32.1439 173.56 31.9309 173.934 31.718 174.31C35.9001 173.189 40.083 172.069 44.2651 170.948C45.4006 170.643 44.9192 168.879 43.7785 169.184C39.5964 170.305 35.4136 171.425 31.2315 172.546C30.7515 172.674 30.4655 173.195 30.5928 173.671C31.7136 177.853 32.8338 182.036 33.9547 186.218C34.2598 187.354 36.0245 186.872 35.7187 185.731Z" fill="#4FD21F"/>
<path d="M45.4905 189.177C47.6986 185.352 49.9067 181.528 52.1156 177.703C52.7053 176.682 51.1249 175.76 50.5359 176.78C48.3278 180.605 46.1197 184.429 43.9109 188.254C43.3211 189.275 44.9015 190.197 45.4905 189.177Z" fill="#4FD21F"/>
<path d="M31.3569 134.811C33.7428 128.411 43.7349 133.184 48.4445 134.48C49.5808 134.792 50.0658 133.028 48.9311 132.716C42.8913 131.054 32.7177 125.942 29.5928 134.325C29.1817 135.429 30.9486 135.906 31.3569 134.811Z" fill="#4FD21F"/>
<path d="M37.413 129.665C35.799 128.535 33.825 126.977 34.4206 124.854C35.0805 122.504 37.5132 123.043 39.4016 123.452C41.0508 123.809 42.6794 124.33 44.3103 124.767C47.3034 125.569 50.5439 126.966 53.6907 126.473C59.181 125.613 63.9331 118.613 58.8518 114.142C53.8495 109.742 47.3846 115.543 48.957 121.259C49.5862 123.546 51.3926 125.211 53.2313 126.579C54.6177 127.61 59.3354 129.682 58.903 131.825C58.6711 132.974 60.4336 133.466 60.667 132.311C61.3701 128.831 56.9597 127.016 54.6799 125.378C52.2274 123.616 49.794 121.204 50.7634 117.89C52.5654 111.734 60.4102 114.967 58.8752 120.387C58.1765 122.852 55.7489 124.325 53.3329 124.657C50.1481 125.096 46.4533 123.448 43.4052 122.631C40.9264 121.966 37.9464 120.677 35.3761 121.467C29.6085 123.239 33.269 128.991 36.4904 131.245C37.4562 131.92 38.3715 130.336 37.413 129.665Z" fill="#4FD21F"/>
<path d="M80.0434 62.2762C77.2017 61.669 74.3607 61.061 71.519 60.4537C70.8181 60.3037 70.2437 60.8773 70.3937 61.579C71.0017 64.42 71.6097 67.261 72.217 70.1027C72.5923 69.7274 72.9669 69.3528 73.3422 68.9774C70.5013 68.3694 67.6595 67.7621 64.8185 67.1542C64.1169 67.0042 63.544 67.5778 63.6933 68.2794C64.2998 71.1219 64.9071 73.9643 65.5136 76.8061C65.8889 76.4307 66.2635 76.0561 66.6389 75.6808C63.7957 75.075 60.9525 74.4692 58.1101 73.8626C57.4084 73.7134 56.8355 74.2863 56.9848 74.9879C57.5906 77.8311 58.1971 80.6743 58.8029 83.5167C59.048 84.6676 60.812 84.1803 60.5669 83.0302C59.9611 80.187 59.3546 77.3438 58.7488 74.5014C58.3742 74.8767 57.9988 75.2513 57.6235 75.6266C60.4667 76.2324 63.3099 76.839 66.1523 77.4448C66.8533 77.594 67.4269 77.0212 67.2776 76.3195C66.6711 73.4771 66.0638 70.6346 65.4573 67.7929C65.0827 68.1682 64.7073 68.5428 64.332 68.9182C67.173 69.5262 70.0147 70.1334 72.8557 70.7414C73.5566 70.8914 74.131 70.3178 73.981 69.6162C73.373 66.7752 72.765 63.9342 72.1577 61.0924C71.7824 61.467 71.4078 61.8424 71.0324 62.2177C73.8742 62.825 76.7151 63.433 79.5569 64.0403C80.7056 64.2854 81.1958 62.5228 80.0434 62.2762Z" fill="#4FD21F"/>
<path d="M87.602 69.8466C84.7603 69.2393 81.9193 68.6313 79.0776 68.024C78.3767 67.874 77.8023 68.4476 77.9523 69.1493C78.5603 71.9903 79.1683 74.8313 79.7756 77.673C80.1509 77.2977 80.5255 76.9231 80.9008 76.5477C78.0598 75.9397 75.2181 75.3325 72.3771 74.7245C71.6762 74.5745 71.1026 75.1481 71.2519 75.8497C71.8584 78.6922 72.4657 81.5347 73.0722 84.3764C73.4475 84.001 73.8221 83.6264 74.1975 83.2511C71.3543 82.6453 68.5111 82.0395 65.6686 81.4329C64.967 81.2837 64.3941 81.8566 64.5434 82.5582C65.1492 85.4014 65.755 88.2446 66.3615 91.0871C66.6066 92.2379 68.3706 91.7507 68.1255 90.6005C67.5197 87.7573 66.9139 84.9141 66.3074 82.0717C65.9328 82.4463 65.5574 82.8216 65.1821 83.197C68.0253 83.8028 70.8685 84.4093 73.7109 85.0151C74.4118 85.1644 74.9855 84.5915 74.8362 83.8898C74.2297 81.0474 73.6224 78.2057 73.0159 75.3632C72.6405 75.7385 72.2659 76.1131 71.8906 76.4885C74.7316 77.0965 77.5733 77.7037 80.4143 78.3117C81.1152 78.4617 81.6896 77.8881 81.5396 77.1865C80.9316 74.3455 80.3236 71.5045 79.7156 68.6628C79.341 69.0374 78.9656 69.4127 78.5903 69.788C81.432 70.3953 84.273 71.0033 87.1147 71.6106C88.2634 71.8564 88.7544 70.0931 87.602 69.8466Z" fill="#4FD21F"/>
<path d="M152.361 83.1953L92.4648 186.938H212.256L152.361 83.1953Z" stroke="#4FD21F" stroke-width="0.711111" stroke-miterlimit="10"/>
<path d="M152.361 221.947L212.256 118.203H92.4648L152.361 221.947Z" stroke="#4FD21F" stroke-width="0.711111" stroke-miterlimit="10"/>
<path d="M117.668 92.5V212.292L221.411 152.396L117.668 92.5Z" stroke="#4FD21F" stroke-width="0.711111" stroke-miterlimit="10"/>
<path d="M187.044 212.651V92.8594L83.3008 152.756L187.044 212.651Z" stroke="#4FD21F" stroke-width="0.711111" stroke-miterlimit="10"/>
</g>
</svg>
