<svg width="305" height="305" viewBox="0 0 305 305" fill="none" xmlns="http://www.w3.org/2000/svg">
<g opacity="0.15">
<path d="M152.353 293.565C230.34 293.565 293.561 230.344 293.561 152.357C293.561 74.3695 230.34 11.1484 152.353 11.1484C74.3656 11.1484 11.1445 74.3695 11.1445 152.357C11.1445 230.344 74.3656 293.565 152.353 293.565Z" stroke="#EDC447" stroke-width="0.711111" stroke-miterlimit="10"/>
<path d="M152.355 304.359C236.303 304.359 304.355 236.307 304.355 152.359C304.355 68.4121 236.303 0.359375 152.355 0.359375C68.4082 0.359375 0.355469 68.4121 0.355469 152.359C0.355469 236.307 68.4082 304.359 152.355 304.359Z" stroke="#EDC447" stroke-width="0.711111" stroke-miterlimit="10"/>
<path d="M152.353 229.197C194.789 229.197 229.19 194.796 229.19 152.36C229.19 109.925 194.789 75.5234 152.353 75.5234C109.917 75.5234 75.5156 109.925 75.5156 152.36C75.5156 194.796 109.917 229.197 152.353 229.197Z" stroke="#EDC447" stroke-width="0.711111" stroke-miterlimit="10"/>
<path d="M152.356 221.51C190.549 221.51 221.51 190.549 221.51 152.356C221.51 114.164 190.549 83.2031 152.356 83.2031C114.164 83.2031 83.2031 114.164 83.2031 152.356C83.2031 190.549 114.164 221.51 152.356 221.51Z" stroke="#EDC447" stroke-width="0.711111" stroke-miterlimit="10"/>
<path d="M152.355 152.357V11.1484" stroke="#EDC447" stroke-width="0.711111" stroke-miterlimit="10"/>
<path d="M152.354 152.36L81.75 30.0703" stroke="#EDC447" stroke-width="0.711111" stroke-miterlimit="10"/>
<path d="M152.352 152.362L30.0625 81.7578" stroke="#EDC447" stroke-width="0.711111" stroke-miterlimit="10"/>
<path d="M152.353 152.359H11.1445" stroke="#EDC447" stroke-width="0.711111" stroke-miterlimit="10"/>
<path d="M152.352 152.359L30.0625 222.963" stroke="#EDC447" stroke-width="0.711111" stroke-miterlimit="10"/>
<path d="M152.354 152.359L81.75 274.649" stroke="#EDC447" stroke-width="0.711111" stroke-miterlimit="10"/>
<path d="M152.355 152.359V293.568" stroke="#EDC447" stroke-width="0.711111" stroke-miterlimit="10"/>
<path d="M152.355 152.359L222.96 274.649" stroke="#EDC447" stroke-width="0.711111" stroke-miterlimit="10"/>
<path d="M152.355 152.359L274.645 222.963" stroke="#EDC447" stroke-width="0.711111" stroke-miterlimit="10"/>
<path d="M152.355 152.359H293.564" stroke="#EDC447" stroke-width="0.711111" stroke-miterlimit="10"/>
<path d="M152.355 152.362L274.645 81.7578" stroke="#EDC447" stroke-width="0.711111" stroke-miterlimit="10"/>
<path d="M152.355 152.36L222.96 30.0703" stroke="#EDC447" stroke-width="0.711111" stroke-miterlimit="10"/>
<path d="M167.956 43.6777C167.589 40.7679 169.924 32.7096 173.897 37.3233C176.264 40.0714 175.925 45.4183 175.844 48.8051C175.721 53.9288 175.097 59.0928 174.097 64.12C173.868 65.2694 175.631 65.7618 175.861 64.6065C177.417 56.7852 178.99 47.4903 176.938 39.6646C176.168 36.7256 174.022 33.4354 170.521 34.4202C166.645 35.511 165.694 40.2433 166.128 43.6784C166.272 44.8301 168.103 44.8447 167.956 43.6777Z" fill="#EDC447"/>
<path d="M192.988 50.879C195.099 48.0504 196.765 43.1052 193.5 40.3513C190.367 37.7086 186.598 40.7354 184.557 43.2186C179.681 49.1538 176.553 56.891 174.1 64.1196C173.721 65.2369 175.487 65.7161 175.864 64.6062C177.309 60.3487 179.074 56.1644 181.116 52.1601C182.573 49.3023 184.191 46.2513 186.385 43.8808C188.168 41.9536 191.515 39.4843 193.145 43.0452C194.227 45.4099 192.808 48.0812 191.409 49.9564C190.705 50.8995 192.292 51.8126 192.988 50.879Z" fill="#EDC447"/>
<path d="M230.312 88.1213C226.931 91.2395 221.728 91.4707 218.378 88.1213C215.126 84.8691 215.128 79.4381 218.378 76.1881C221.604 72.9622 227.09 72.9022 230.312 76.1881C233.633 79.5763 233.459 84.7088 230.312 88.1213C229.515 88.9853 230.805 90.2825 231.605 89.4148C235.401 85.2993 235.657 78.9786 231.605 74.8945C227.682 70.9414 221.008 70.9414 217.085 74.8945C213.152 78.8586 213.125 85.4544 217.085 89.4148C221.155 93.485 227.5 93.2004 231.605 89.4148C232.472 88.6151 231.176 87.3238 230.312 88.1213Z" fill="#EDC447"/>
<path d="M226.155 56.3348C231.574 62.3489 225.255 70.3546 230.319 76.1749C231.093 77.0646 232.382 75.7659 231.613 74.8813C228.818 71.6701 230.604 67.2349 230.629 63.4471C230.651 60.1562 229.663 57.4988 227.449 55.0412C226.659 54.1654 225.369 55.4619 226.155 56.3348Z" fill="#EDC447"/>
<path d="M251.452 79.0567C248.993 76.842 246.349 75.8433 243.046 75.8762C239.254 75.9142 234.823 77.6885 231.612 74.8929C230.727 74.1232 229.428 75.4116 230.318 76.1864C236.135 81.2487 244.146 74.9338 250.158 80.3502C251.03 81.136 252.328 79.8461 251.452 79.0567Z" fill="#EDC447"/>
<path d="M269.593 116.575C261.507 118.741 253.421 120.908 245.335 123.074C244.2 123.379 244.681 125.144 245.822 124.838C253.908 122.672 261.993 120.505 270.08 118.339C271.215 118.034 270.733 116.269 269.593 116.575Z" fill="#EDC447"/>
<path d="M271.628 124.176C263.542 126.342 255.457 128.51 247.37 130.676C246.235 130.98 246.716 132.745 247.857 132.44C255.943 130.274 264.029 128.106 272.115 125.94C273.25 125.635 272.768 123.87 271.628 124.176Z" fill="#EDC447"/>
<path d="M269.748 107.13C268.048 111.79 268.798 116.88 269.99 121.571C270.28 122.711 272.045 122.228 271.754 121.084C270.636 116.685 269.918 111.987 271.512 107.617C271.916 106.509 270.149 106.031 269.748 107.13Z" fill="#EDC447"/>
<path d="M278.291 132.885C274.715 129.935 272.971 125.432 271.759 121.083C271.444 119.951 269.678 120.432 269.995 121.57C271.285 126.198 273.193 131.039 276.997 134.179C277.899 134.923 279.2 133.636 278.291 132.885Z" fill="#EDC447"/>
<path d="M247.745 142.029C249.444 137.369 248.696 132.279 247.503 127.588C247.213 126.448 245.449 126.931 245.739 128.075C246.858 132.474 247.576 137.172 245.981 141.542C245.577 142.65 247.344 143.128 247.745 142.029Z" fill="#EDC447"/>
<path d="M239.211 116.275C242.786 119.226 244.531 123.729 245.743 128.077C246.058 129.21 247.824 128.729 247.507 127.591C246.217 122.962 244.309 118.121 240.504 114.982C239.603 114.238 238.302 115.525 239.211 116.275Z" fill="#EDC447"/>
<path d="M117.439 54.2454C123.087 52.7324 128.735 51.2186 134.383 49.7056C135.518 49.4012 135.037 47.6364 133.896 47.9415C128.248 49.4546 122.6 50.9684 116.953 52.4814C115.817 52.7865 116.299 54.5513 117.439 54.2454Z" fill="#EDC447"/>
<path d="M112.581 39.2271C117.29 42.3673 120.172 46.7411 121.717 52.1678C122.039 53.2982 123.804 52.8175 123.481 51.6812C121.804 45.7878 118.614 41.0548 113.504 37.6475C112.522 36.9934 111.605 38.5767 112.581 39.2271Z" fill="#EDC447"/>
<path d="M121.854 68.8465C124.572 63.3035 124.949 57.664 123.478 51.6835C123.197 50.5406 121.432 51.025 121.714 52.17C123.071 57.6888 122.781 62.8111 120.274 67.9239C119.758 68.9767 121.335 69.9044 121.854 68.8465Z" fill="#EDC447"/>
<path d="M129.602 33.3263C126.884 38.8692 126.507 44.5088 127.978 50.4893C128.259 51.6321 130.024 51.1477 129.742 50.0027C128.385 44.4839 128.675 39.3616 131.182 34.2489C131.698 33.196 130.121 32.2683 129.602 33.3263Z" fill="#EDC447"/>
<path d="M138.877 62.9444C134.168 59.8041 131.285 55.4303 129.741 50.0037C129.419 48.8733 127.653 49.354 127.977 50.4902C129.655 56.3837 132.844 61.1167 137.954 64.524C138.936 65.1788 139.853 63.5948 138.877 62.9444Z" fill="#EDC447"/>
<path d="M236.348 224.632C238.831 221.941 238.998 217.804 236.348 215.133C233.784 212.549 229.414 212.549 226.849 215.133C224.278 217.726 224.26 222.043 226.849 224.632C229.511 227.293 233.664 227.108 236.348 224.632C237.215 223.833 235.92 222.541 235.055 223.339C233.096 225.146 230.083 225.28 228.143 223.339C226.259 221.455 226.26 218.31 228.143 216.427C230.015 214.555 233.186 214.525 235.055 216.427C236.982 218.387 236.876 221.364 235.055 223.339C234.258 224.203 235.549 225.5 236.348 224.632Z" fill="#EDC447"/>
<path d="M226.853 224.657C228.77 226.313 230.881 226.853 233.252 227.607C237.674 229.015 243.063 233.315 240.979 238.611C238.606 244.643 231.859 244.194 227.96 240.225C225.182 237.397 223.793 233.615 222.996 229.812C222.254 226.264 222.175 221.674 218.426 219.843C214.499 217.924 211.662 221.269 210.437 224.664C210.037 225.773 211.804 226.251 212.202 225.15C212.951 223.072 214.451 220.442 217.132 221.28C218.767 221.79 219.669 223.334 220.152 224.862C221.039 227.677 221.157 230.69 222.058 233.517C223.762 238.862 228.159 245.48 234.515 245.207C239.651 244.986 244.091 240.077 243.081 234.91C242.528 232.082 240.634 229.553 238.307 227.92C235.202 225.742 231.025 225.85 228.147 223.364C227.26 222.597 225.96 223.886 226.853 224.657Z" fill="#EDC447"/>
<path d="M261.655 176.123C255.698 174.178 258.071 165.051 264.172 166.678C270.275 168.304 267.791 177.418 261.655 176.123C260.507 175.881 260.017 177.643 261.169 177.887C264.739 178.64 268.411 176.819 269.4 173.146C270.346 169.63 268.188 165.847 264.658 164.915C261.239 164.011 257.601 165.979 256.525 169.355C255.333 173.095 257.576 176.715 261.168 177.887C262.291 178.253 262.771 176.487 261.655 176.123Z" fill="#EDC447"/>
<path d="M264.17 166.682C271.176 169.017 269.461 179.798 267.607 185.035C266.264 188.829 263.933 192.871 260.627 195.319C259.691 196.012 260.603 197.601 261.55 196.899C266.252 193.417 269.167 187.573 270.337 181.973C271.585 176 271.623 167.241 264.656 164.919C263.537 164.546 263.057 166.311 264.17 166.682Z" fill="#EDC447"/>
<path d="M253.163 182.916C259.12 184.861 256.747 193.987 250.646 192.361C244.543 190.734 247.027 181.621 253.163 182.916C254.311 183.158 254.801 181.396 253.649 181.152C250.079 180.399 246.407 182.22 245.418 185.893C244.472 189.409 246.63 193.191 250.159 194.124C253.578 195.028 257.217 193.06 258.292 189.684C259.484 185.944 257.241 182.325 253.649 181.152C252.528 180.786 252.047 182.552 253.163 182.916Z" fill="#EDC447"/>
<path d="M250.643 192.36C243.637 190.025 245.352 179.244 247.206 174.007C248.548 170.214 250.88 166.172 254.186 163.723C255.122 163.031 254.211 161.442 253.263 162.144C248.561 165.626 245.646 171.47 244.476 177.07C243.228 183.043 243.189 191.802 250.157 194.124C251.276 194.497 251.756 192.731 250.643 192.36Z" fill="#EDC447"/>
<path d="M190.674 264.979C190.266 266.426 189.855 267.926 189.113 269.246C188.454 270.42 187.163 270.969 185.988 269.747C185.458 269.194 185.247 267.691 185.016 266.895C184.392 264.741 183.854 262.56 183.274 260.395C182.308 256.792 181.343 253.189 180.377 249.585C180.073 248.45 178.308 248.931 178.613 250.072C180.118 255.689 181.624 261.308 183.129 266.925C183.717 269.12 184.316 271.992 186.894 272.609C190.413 273.451 191.766 267.843 192.436 265.466C192.758 264.33 190.993 263.846 190.674 264.979Z" fill="#EDC447"/>
<path d="M195.12 268.971C191.904 267.99 191.017 259.693 190.281 256.942C189.447 253.831 188.613 250.72 187.78 247.609C187.475 246.473 185.711 246.955 186.016 248.095C187.11 252.18 188.205 256.265 189.299 260.35C190.235 263.842 190.605 269.506 194.635 270.735C195.763 271.08 196.245 269.315 195.12 268.971Z" fill="#EDC447"/>
<path d="M183.271 266.976C182.859 268.439 182.296 271.679 180.89 272.478C178.862 273.631 178.213 270.924 177.896 269.944C177.534 268.821 177.281 267.649 176.976 266.509C176.094 263.217 175.212 259.925 174.33 256.633C173.156 252.253 172.157 247.468 167.211 245.862C166.088 245.497 165.608 247.263 166.724 247.626C170.02 248.696 171.121 251.726 171.92 254.707C172.989 258.699 174.058 262.69 175.128 266.681C175.8 269.187 176.151 272.846 178.632 274.243C182.567 276.457 184.305 270.052 185.035 267.463C185.356 266.327 183.591 265.842 183.271 266.976Z" fill="#EDC447"/>
<path d="M174.802 264.978C174.661 265.638 174.262 268.338 173.7 268.71C172.365 269.596 171.684 267.772 171.401 266.927C170.771 265.048 170.393 262.93 170.379 260.952C170.341 255.677 173.527 250.914 176.978 247.204C177.779 246.342 176.488 245.046 175.684 245.91C170.183 251.826 167.12 258.942 169.498 266.971C169.993 268.644 170.893 271.437 173.125 271.256C175.635 271.053 176.181 267.271 176.566 265.465C176.81 264.316 175.047 263.826 174.802 264.978Z" fill="#EDC447"/>
<path d="M130.232 258.329C132.604 264.527 127.306 271.344 120.595 268.796C114.635 266.532 114.356 259.023 119.026 255.32C119.948 254.589 118.645 253.302 117.732 254.027C111.853 258.689 112.96 268.308 120.417 270.702C128.339 273.243 134.822 265.232 131.995 257.842C131.579 256.753 129.81 257.226 130.232 258.329Z" fill="#EDC447"/>
<path d="M130.863 258.979C133.595 259.711 136.328 260.443 139.06 261.175C140.198 261.48 140.684 259.716 139.546 259.411C136.814 258.679 134.081 257.947 131.35 257.215C130.211 256.91 129.725 258.674 130.863 258.979Z" fill="#EDC447"/>
<path d="M111.793 246.432C121.502 249.034 131.211 251.635 140.92 254.237C142.059 254.542 142.544 252.778 141.407 252.473C131.698 249.871 121.989 247.27 112.28 244.668C111.141 244.363 110.655 246.127 111.793 246.432Z" fill="#EDC447"/>
<path d="M109.937 253.354C112.669 254.086 115.402 254.818 118.134 255.55C119.272 255.855 119.758 254.091 118.62 253.786C115.888 253.054 113.156 252.322 110.424 251.59C109.285 251.285 108.799 253.049 109.937 253.354Z" fill="#EDC447"/>
<path d="M72.2148 242.151C71.0442 242.448 69.924 242.716 68.7212 242.828C67.9098 242.968 67.0955 242.971 66.2782 242.839C66.426 241.635 66.5731 240.43 66.7209 239.225C66.9338 238.801 67.5557 238.39 67.8937 238.052C69.5172 236.429 71.14 234.806 72.7636 233.183C75.3112 230.635 77.8595 228.087 80.4071 225.539C81.2404 224.706 79.9476 223.412 79.1135 224.246C75.0595 228.3 71.0054 232.354 66.9521 236.407C65.3 238.059 62.6156 240.396 63.8148 243.046C65.1873 246.078 70.3923 244.501 72.7014 243.914C73.8413 243.625 73.3584 241.861 72.2148 242.151Z" fill="#EDC447"/>
<path d="M70.9968 247.975C70.6968 246.55 72.0914 244.884 72.9635 243.815C73.4347 243.238 74.0529 242.725 74.5782 242.2C76.1425 240.636 77.706 239.072 79.2703 237.508C81.455 235.323 83.6404 233.138 85.8251 230.953C86.6585 230.12 85.3656 228.826 84.5316 229.66C81.6496 232.542 78.7676 235.424 75.8857 238.306C73.2225 240.969 68.3387 244.213 69.2328 248.461C69.4757 249.612 71.239 249.125 70.9968 247.975Z" fill="#EDC447"/>
<path d="M66.793 236.728C65.2266 237.125 62.3892 238.164 60.8564 237.415C57.7989 235.922 61.174 234.165 61.8771 233.223C62.5992 232.257 63.6689 231.432 64.5191 230.581C67.0096 228.091 69.5001 225.6 71.9906 223.11C73.244 221.857 75.0277 220.549 75.7616 218.869C76.8722 216.327 75.4689 213.556 73.5893 211.793C72.7311 210.989 71.4353 212.279 72.2958 213.087C75.7074 216.286 73.6661 218.847 71.1397 221.374C68.3478 224.166 65.5558 226.958 62.7631 229.75C60.9515 231.562 57.9876 233.696 58.1852 236.553C58.4815 240.847 64.7481 239.134 67.2788 238.492C68.4195 238.202 67.9366 236.438 66.793 236.728Z" fill="#EDC447"/>
<path d="M69.3908 210.011C69.7683 211.421 70.1458 212.829 70.5234 214.238C70.7019 214.905 71.5682 215.126 72.0518 214.642C73.0834 213.61 74.1143 212.579 75.1459 211.548C75.6303 211.064 75.4086 210.198 74.742 210.019C73.3329 209.642 71.9245 209.264 70.5153 208.887C69.3769 208.582 68.8918 210.346 70.0288 210.651C71.4379 211.028 72.8463 211.406 74.2555 211.783C74.1209 211.274 73.9863 210.764 73.8524 210.255C72.8207 211.287 71.7898 212.318 70.7582 213.349C71.2674 213.484 71.7774 213.618 72.2866 213.753C71.9091 212.344 71.5316 210.935 71.154 209.526C70.8504 208.389 69.0857 208.871 69.3908 210.011Z" fill="#EDC447"/>
<path d="M56.5177 186.836C48.324 182.106 40.131 177.375 31.9373 172.645C30.9159 172.056 29.994 173.636 31.0139 174.225C39.2077 178.956 47.4007 183.686 55.5944 188.416C56.6158 189.006 57.5384 187.426 56.5177 186.836Z" fill="#EDC447"/>
<path d="M35.7148 185.724C34.5939 181.542 33.4737 177.359 32.3529 173.177C32.14 173.552 31.927 173.927 31.7141 174.302C35.8962 173.181 40.0791 172.061 44.2612 170.94C45.3967 170.636 44.9153 168.871 43.7746 169.176C39.5925 170.297 35.4097 171.417 31.2276 172.538C30.7476 172.667 30.4615 173.187 30.5889 173.663C31.7097 177.845 32.8299 182.028 33.9508 186.21C34.2559 187.346 36.0206 186.864 35.7148 185.724Z" fill="#EDC447"/>
<path d="M45.4866 189.177C47.6947 185.352 49.9028 181.528 52.1117 177.703C52.7014 176.682 51.121 175.76 50.532 176.78C48.3239 180.605 46.1158 184.429 43.9069 188.254C43.3172 189.275 44.8976 190.197 45.4866 189.177Z" fill="#EDC447"/>
<path d="M31.3529 134.803C33.7389 128.403 43.731 133.176 48.4406 134.472C49.5769 134.785 50.0619 133.021 48.9272 132.708C42.8874 131.046 32.7138 125.935 29.5889 134.317C29.1778 135.421 30.9447 135.898 31.3529 134.803Z" fill="#EDC447"/>
<path d="M37.4091 129.665C35.7951 128.535 33.8211 126.977 34.4167 124.854C35.0766 122.504 37.5093 123.043 39.3977 123.452C41.0469 123.809 42.6755 124.33 44.3064 124.767C47.2995 125.569 50.54 126.966 53.6868 126.473C59.1771 125.613 63.9292 118.613 58.8479 114.142C53.8456 109.742 47.3807 115.543 48.9531 121.259C49.5823 123.546 51.3887 125.211 53.2273 126.579C54.6138 127.61 59.3315 129.682 58.8991 131.825C58.6671 132.974 60.4297 133.466 60.6631 132.311C61.3662 128.831 56.9558 127.016 54.676 125.378C52.2235 123.616 49.7901 121.204 50.7595 117.89C52.5615 111.734 60.4063 114.967 58.8713 120.387C58.1726 122.852 55.7449 124.325 53.329 124.657C50.1442 125.096 46.4494 123.448 43.4013 122.631C40.9225 121.966 37.9425 120.677 35.3722 121.467C29.6046 123.239 33.265 128.991 36.4865 131.245C37.4523 131.92 38.3676 130.336 37.4091 129.665Z" fill="#EDC447"/>
<path d="M80.0395 62.2841C77.1978 61.6768 74.3568 61.0688 71.5151 60.4615C70.8141 60.3115 70.2398 60.8851 70.3898 61.5868C70.9978 64.4278 71.6058 67.2688 72.2131 70.1105C72.5884 69.7352 72.963 69.3606 73.3383 68.9852C70.4973 68.3772 67.6556 67.77 64.8146 67.162C64.113 67.012 63.5401 67.5856 63.6894 68.2872C64.2959 71.1297 64.9032 73.9721 65.5097 76.8139C65.885 76.4385 66.2596 76.0639 66.635 75.6886C63.7918 75.0828 60.9486 74.477 58.1061 73.8705C57.4045 73.7212 56.8316 74.2941 56.9809 74.9957C57.5867 77.8389 58.1932 80.6821 58.799 83.5245C59.0441 84.6754 60.8081 84.1882 60.563 83.038C59.9572 80.1948 59.3507 77.3516 58.7449 74.5092C58.3703 74.8845 57.9949 75.2591 57.6196 75.6345C60.4628 76.2403 63.306 76.8468 66.1484 77.4526C66.8493 77.6019 67.423 77.029 67.2737 76.3273C66.6672 73.4849 66.0599 70.6424 65.4534 67.8007C65.0788 68.176 64.7034 68.5506 64.3281 68.926C67.1691 69.534 70.0108 70.1412 72.8518 70.7492C73.5527 70.8992 74.1271 70.3256 73.9771 69.624C73.3691 66.783 72.7611 63.942 72.1538 61.1003C71.7785 61.4749 71.4039 61.8502 71.0285 62.2255C73.8702 62.8328 76.7112 63.4408 79.553 64.0481C80.7017 64.2932 81.1919 62.5306 80.0395 62.2841Z" fill="#EDC447"/>
<path d="M87.5981 69.8466C84.7564 69.2393 81.9154 68.6313 79.0737 68.024C78.3727 67.874 77.7984 68.4476 77.9484 69.1493C78.5564 71.9903 79.1644 74.8313 79.7717 77.673C80.147 77.2977 80.5216 76.9231 80.8969 76.5477C78.0559 75.9397 75.2142 75.3325 72.3732 74.7245C71.6723 74.5745 71.0987 75.1481 71.248 75.8497C71.8545 78.6922 72.4618 81.5347 73.0683 84.3764C73.4436 84.001 73.8182 83.6264 74.1936 83.2511C71.3504 82.6453 68.5072 82.0395 65.6647 81.4329C64.9631 81.2837 64.3902 81.8566 64.5395 82.5582C65.1453 85.4014 65.7511 88.2446 66.3576 91.0871C66.6027 92.2379 68.3667 91.7507 68.1216 90.6005C67.5158 87.7573 66.91 84.9141 66.3035 82.0717C65.9289 82.4463 65.5535 82.8216 65.1782 83.197C68.0214 83.8028 70.8646 84.4093 73.707 85.0151C74.4079 85.1644 74.9815 84.5915 74.8323 83.8898C74.2258 81.0474 73.6185 78.2057 73.012 75.3632C72.6366 75.7385 72.262 76.1131 71.8867 76.4885C74.7277 77.0965 77.5694 77.7037 80.4104 78.3117C81.1113 78.4617 81.6856 77.8881 81.5357 77.1865C80.9277 74.3455 80.3197 71.5045 79.7117 68.6628C79.3371 69.0374 78.9617 69.4127 78.5864 69.788C81.4281 70.3953 84.2691 71.0033 87.1108 71.6106C88.2595 71.8564 88.7505 70.0931 87.5981 69.8466Z" fill="#EDC447"/>
<path d="M152.353 83.1953L92.457 186.938H212.248L152.353 83.1953Z" stroke="#EDC447" stroke-width="0.711111" stroke-miterlimit="10"/>
<path d="M152.353 221.954L212.248 118.211H92.457L152.353 221.954Z" stroke="#EDC447" stroke-width="0.711111" stroke-miterlimit="10"/>
<path d="M117.668 92.4922V212.284L221.411 152.388L117.668 92.4922Z" stroke="#EDC447" stroke-width="0.711111" stroke-miterlimit="10"/>
<path d="M187.04 212.651V92.8594L83.2969 152.756L187.04 212.651Z" stroke="#EDC447" stroke-width="0.711111" stroke-miterlimit="10"/>
</g>
</svg>
