<svg width="590" height="607" viewBox="0 0 590 607" fill="none" xmlns="http://www.w3.org/2000/svg">
<g opacity="0.3">
<path d="M294.908 584.806C445.961 584.806 568.414 458.818 568.414 303.403C568.414 147.988 445.961 22 294.908 22C143.855 22 21.4023 147.988 21.4023 303.403C21.4023 458.818 143.855 584.806 294.908 584.806Z" stroke="#B5815E" stroke-miterlimit="10"/>
<path d="M294.908 606.318C457.506 606.318 589.317 470.701 589.317 303.409C589.317 136.117 457.506 0.5 294.908 0.5C132.311 0.5 0.5 136.117 0.5 303.409C0.5 470.701 132.311 606.318 294.908 606.318Z" stroke="#B5815E" stroke-miterlimit="10"/>
<path d="M294.911 456.534C377.105 456.534 443.737 387.979 443.737 303.412C443.737 218.844 377.105 150.289 294.911 150.289C212.717 150.289 146.086 218.844 146.086 303.412C146.086 387.979 212.717 456.534 294.911 456.534Z" stroke="#B5815E" stroke-miterlimit="10"/>
<path d="M294.908 441.222C368.882 441.222 428.85 379.522 428.85 303.412C428.85 227.301 368.882 165.602 294.908 165.602C220.933 165.602 160.965 227.301 160.965 303.412C160.965 379.522 220.933 441.222 294.908 441.222Z" stroke="#B5815E" stroke-miterlimit="10"/>
<path d="M294.91 303.403V22" stroke="#B5815E" stroke-miterlimit="10"/>
<path d="M294.905 303.398L158.152 59.6953" stroke="#B5815E" stroke-miterlimit="10"/>
<path d="M294.91 303.412L58.0469 162.711" stroke="#B5815E" stroke-miterlimit="10"/>
<path d="M294.908 303.406H21.4023" stroke="#B5815E" stroke-miterlimit="10"/>
<path d="M294.91 303.406L58.0469 444.108" stroke="#B5815E" stroke-miterlimit="10"/>
<path d="M294.905 303.406L158.152 547.109" stroke="#B5815E" stroke-miterlimit="10"/>
<path d="M294.91 303.406V584.809" stroke="#B5815E" stroke-miterlimit="10"/>
<path d="M294.91 303.406L431.663 547.109" stroke="#B5815E" stroke-miterlimit="10"/>
<path d="M294.91 303.406L531.773 444.108" stroke="#B5815E" stroke-miterlimit="10"/>
<path d="M294.91 303.406H568.416" stroke="#B5815E" stroke-miterlimit="10"/>
<path d="M294.91 303.412L531.773 162.711" stroke="#B5815E" stroke-miterlimit="10"/>
<path d="M294.91 303.398L431.663 59.6953" stroke="#B5815E" stroke-miterlimit="10"/>
<path d="M325.147 86.8111C324.435 81.0125 328.957 64.9536 336.654 74.148C341.238 79.6244 340.582 90.2798 340.425 97.0291C340.185 107.24 338.978 117.531 337.041 127.549C336.597 129.84 340.012 130.821 340.457 128.519C343.472 112.932 346.517 94.409 342.543 78.8138C341.051 72.9568 336.895 66.3999 330.115 68.3625C322.607 70.5364 320.765 79.9671 321.605 86.8126C321.884 89.1076 325.431 89.1367 325.147 86.8111Z" fill="#B5815E"/>
<path d="M373.625 101.167C377.713 95.5305 380.94 85.6755 374.615 80.1875C368.547 74.921 361.247 80.9529 357.295 85.9015C347.85 97.7292 341.792 113.148 337.04 127.554C336.306 129.78 339.727 130.735 340.457 128.523C343.256 120.039 346.674 111.7 350.629 103.72C353.452 98.0252 356.587 91.9451 360.835 87.2211C364.289 83.3806 370.772 78.4597 373.928 85.556C376.024 90.2684 373.276 95.5917 370.566 99.3287C369.202 101.208 372.276 103.028 373.625 101.167Z" fill="#B5815E"/>
<path d="M445.922 175.345C439.374 181.559 429.296 182.02 422.809 175.345C416.51 168.864 416.514 158.041 422.809 151.564C429.057 145.136 439.683 145.016 445.922 151.564C452.356 158.317 452.019 168.545 445.922 175.345C444.379 177.067 446.877 179.652 448.428 177.923C455.78 169.721 456.276 157.125 448.428 148.986C440.829 141.109 427.902 141.109 420.303 148.986C412.685 156.886 412.634 170.03 420.303 177.923C428.187 186.034 440.476 185.467 448.428 177.923C450.107 176.329 447.597 173.756 445.922 175.345Z" fill="#B5815E"/>
<path d="M437.857 112.033C448.353 124.018 436.113 139.972 445.922 151.571C447.422 153.344 449.919 150.756 448.428 148.993C443.016 142.594 446.474 133.755 446.523 126.207C446.566 119.649 444.651 114.353 440.363 109.455C438.832 107.71 436.334 110.294 437.857 112.033Z" fill="#B5815E"/>
<path d="M486.859 157.293C482.098 152.879 476.976 150.889 470.578 150.955C463.233 151.03 454.652 154.566 448.431 148.995C446.718 147.461 444.203 150.029 445.926 151.573C457.192 161.661 472.709 149.077 484.354 159.871C486.043 161.436 488.557 158.866 486.859 157.293Z" fill="#B5815E"/>
<path d="M521.99 232.094C506.327 236.411 490.665 240.73 475.005 245.047C472.805 245.654 473.738 249.171 475.947 248.563C491.609 244.245 507.27 239.927 522.932 235.609C525.131 235.003 524.197 231.485 521.99 232.094Z" fill="#B5815E"/>
<path d="M525.931 247.235C510.269 251.552 494.608 255.871 478.946 260.188C476.747 260.795 477.679 264.311 479.889 263.703C495.551 259.386 511.211 255.067 526.873 250.75C529.073 250.142 528.139 246.625 525.931 247.235Z" fill="#B5815E"/>
<path d="M522.289 213.28C518.997 222.566 520.448 232.71 522.758 242.057C523.319 244.329 526.737 243.367 526.175 241.088C524.008 232.32 522.618 222.958 525.706 214.249C526.488 212.042 523.066 211.09 522.289 213.28Z" fill="#B5815E"/>
<path d="M538.834 264.603C531.908 258.723 528.53 249.75 526.181 241.084C525.571 238.827 522.151 239.786 522.765 242.053C525.263 251.277 528.959 260.925 536.327 267.181C538.074 268.664 540.594 266.099 538.834 264.603Z" fill="#B5815E"/>
<path d="M479.663 282.816C482.953 273.53 481.504 263.386 479.194 254.039C478.633 251.767 475.215 252.729 475.777 255.008C477.944 263.775 479.334 273.138 476.246 281.846C475.464 284.054 478.886 285.006 479.663 282.816Z" fill="#B5815E"/>
<path d="M463.125 231.485C470.05 237.365 473.429 246.338 475.777 255.005C476.388 257.262 479.807 256.302 479.194 254.035C476.695 244.811 472.999 235.164 465.63 228.907C463.885 227.424 461.365 229.989 463.125 231.485Z" fill="#B5815E"/>
<path d="M227.288 107.898C238.226 104.883 249.167 101.867 260.105 98.8513C262.305 98.2448 261.372 94.728 259.163 95.336C248.223 98.3512 237.284 101.368 226.345 104.383C224.144 104.991 225.078 108.508 227.288 107.898Z" fill="#B5815E"/>
<path d="M217.869 77.9496C226.99 84.2075 232.573 92.9237 235.565 103.738C236.189 105.991 239.608 105.033 238.982 102.768C235.734 91.0239 229.555 81.5918 219.658 74.8016C217.756 73.4981 215.979 76.6533 217.869 77.9496Z" fill="#B5815E"/>
<path d="M235.836 136.971C241.1 125.925 241.83 114.687 238.982 102.769C238.438 100.491 235.02 101.456 235.565 103.738C238.194 114.736 237.631 124.944 232.776 135.133C231.777 137.231 234.831 139.08 235.836 136.971Z" fill="#B5815E"/>
<path d="M250.841 66.196C245.577 77.2422 244.847 88.4808 247.695 100.399C248.24 102.676 251.658 101.711 251.112 99.4293C248.483 88.4312 249.046 78.2235 253.901 68.0346C254.9 65.9365 251.846 64.0877 250.841 66.196Z" fill="#B5815E"/>
<path d="M268.81 125.213C259.689 118.955 254.106 110.239 251.114 99.4247C250.491 97.172 247.071 98.1299 247.697 100.394C250.947 112.139 257.124 121.571 267.021 128.361C268.925 129.666 270.7 126.509 268.81 125.213Z" fill="#B5815E"/>
<path d="M457.6 447.464C462.409 442.101 462.733 433.856 457.6 428.534C452.633 423.384 444.169 423.384 439.202 428.534C434.221 433.7 434.187 442.304 439.202 447.464C444.357 452.767 452.401 452.398 457.6 447.464C459.28 445.87 456.77 443.297 455.095 444.886C451.3 448.488 445.466 448.754 441.707 444.886C438.058 441.132 438.06 434.865 441.707 431.112C445.332 427.382 451.474 427.323 455.095 431.112C458.828 435.018 458.622 440.951 455.095 444.886C453.552 446.608 456.051 449.193 457.6 447.464Z" fill="#B5815E"/>
<path d="M439.205 447.455C442.918 450.755 447.008 451.831 451.599 453.334C460.164 456.139 470.603 464.708 466.567 475.263C461.97 487.283 448.902 486.388 441.351 478.48C435.97 472.844 433.279 465.308 431.735 457.727C430.297 450.657 430.145 441.511 422.884 437.861C415.277 434.037 409.783 440.703 407.41 447.468C406.635 449.679 410.058 450.631 410.827 448.438C412.28 444.296 415.183 439.055 420.377 440.725C423.543 441.743 425.292 444.818 426.226 447.864C427.945 453.474 428.173 459.477 429.919 465.112C433.219 475.763 441.736 488.951 454.045 488.407C463.993 487.967 472.594 478.185 470.637 467.888C469.566 462.252 465.898 457.212 461.39 453.958C455.377 449.618 447.285 449.832 441.712 444.879C439.993 443.351 437.476 445.918 439.205 447.455Z" fill="#B5815E"/>
<path d="M506.607 350.773C495.069 346.897 499.665 328.71 511.482 331.951C523.303 335.192 518.492 353.354 506.607 350.773C504.384 350.29 503.433 353.803 505.665 354.288C512.581 355.79 519.693 352.159 521.608 344.84C523.44 337.834 519.26 330.296 512.423 328.437C505.801 326.636 498.754 330.559 496.671 337.286C494.362 344.739 498.707 351.952 505.664 354.288C507.838 355.017 508.769 351.499 506.607 350.773Z" fill="#B5815E"/>
<path d="M511.486 331.937C525.057 336.591 521.735 358.075 518.144 368.512C515.542 376.072 511.027 384.126 504.623 389.006C502.811 390.387 504.577 393.552 506.412 392.154C515.52 385.215 521.165 373.568 523.431 362.408C525.848 350.506 525.923 333.051 512.427 328.423C510.261 327.679 509.331 331.198 511.486 331.937Z" fill="#B5815E"/>
<path d="M490.158 364.287C501.697 368.163 497.101 386.35 485.283 383.109C473.463 379.868 478.274 361.706 490.158 364.287C492.382 364.77 493.333 361.257 491.101 360.772C484.185 359.27 477.073 362.9 475.158 370.22C473.326 377.226 477.506 384.764 484.341 386.623C490.963 388.424 498.011 384.501 500.094 377.774C502.402 370.32 498.057 363.109 491.101 360.772C488.928 360.043 487.997 363.561 490.158 364.287Z" fill="#B5815E"/>
<path d="M485.282 383.112C471.712 378.457 475.034 356.973 478.625 346.538C481.225 338.978 485.741 330.924 492.145 326.044C493.958 324.663 492.194 321.497 490.357 322.896C481.249 329.835 475.603 341.481 473.337 352.641C470.921 364.543 470.844 381.999 484.341 386.627C486.508 387.37 487.438 383.851 485.282 383.112Z" fill="#B5815E"/>
<path d="M369.128 527.851C368.337 530.734 367.542 533.723 366.105 536.354C364.828 538.693 362.327 539.788 360.052 537.352C359.025 536.251 358.617 533.256 358.169 531.668C356.96 527.377 355.918 523.029 354.795 518.715C352.924 511.536 351.055 504.355 349.184 497.174C348.595 494.911 345.177 495.87 345.768 498.143C348.683 509.338 351.599 520.535 354.514 531.729C355.652 536.102 356.813 541.826 361.805 543.056C368.623 544.734 371.243 533.558 372.541 528.822C373.164 526.558 369.745 525.593 369.128 527.851Z" fill="#B5815E"/>
<path d="M377.742 535.8C371.512 533.844 369.795 517.311 368.368 511.829C366.754 505.629 365.138 499.428 363.524 493.228C362.935 490.966 359.516 491.925 360.107 494.198C362.227 502.338 364.347 510.479 366.467 518.619C368.28 525.578 368.997 536.865 376.801 539.314C378.986 540.003 379.92 536.486 377.742 535.8Z" fill="#B5815E"/>
<path d="M354.79 531.815C353.991 534.731 352.901 541.187 350.179 542.781C346.251 545.079 344.992 539.683 344.38 537.73C343.677 535.492 343.188 533.156 342.597 530.885C340.888 524.325 339.18 517.764 337.471 511.204C335.198 502.475 333.263 492.939 323.683 489.739C321.509 489.013 320.578 492.531 322.74 493.254C329.125 495.387 331.256 501.425 332.803 507.367C334.875 515.32 336.946 523.274 339.018 531.227C340.318 536.221 340.999 543.514 345.806 546.298C353.425 550.71 356.793 537.946 358.207 532.786C358.828 530.522 355.409 529.557 354.79 531.815Z" fill="#B5815E"/>
<path d="M338.39 527.841C338.118 529.156 337.344 534.536 336.255 535.278C333.669 537.043 332.35 533.408 331.801 531.724C330.581 527.981 329.85 523.76 329.823 519.817C329.749 509.305 335.921 499.813 342.604 492.419C344.156 490.703 341.656 488.119 340.099 489.841C329.443 501.631 323.51 515.812 328.116 531.813C329.075 535.146 330.818 540.713 335.142 540.352C340.002 539.947 341.061 532.41 341.806 528.81C342.28 526.521 338.864 525.544 338.39 527.841Z" fill="#B5815E"/>
<path d="M252.054 514.586C256.649 526.938 246.387 540.523 233.389 535.445C221.845 530.933 221.306 515.969 230.35 508.59C232.135 507.134 229.613 504.569 227.844 506.012C216.458 515.303 218.6 534.474 233.045 539.243C248.388 544.308 260.945 528.342 255.47 513.616C254.665 511.447 251.238 512.389 252.054 514.586Z" fill="#B5815E"/>
<path d="M253.287 515.851C258.578 517.311 263.871 518.769 269.163 520.228C271.368 520.836 272.309 517.321 270.105 516.713C264.814 515.253 259.521 513.795 254.229 512.336C252.024 511.729 251.083 515.244 253.287 515.851Z" fill="#B5815E"/>
<path d="M216.342 490.875C235.148 496.06 253.953 501.243 272.758 506.428C274.963 507.036 275.903 503.52 273.701 502.912C254.895 497.728 236.09 492.544 217.285 487.359C215.078 486.751 214.137 490.267 216.342 490.875Z" fill="#B5815E"/>
<path d="M212.751 504.671C218.043 506.131 223.336 507.589 228.628 509.048C230.833 509.656 231.774 506.141 229.57 505.533C224.278 504.074 218.985 502.615 213.694 501.156C211.489 500.549 210.548 504.065 212.751 504.671Z" fill="#B5815E"/>
<path d="M139.681 482.32C137.414 482.912 135.244 483.446 132.915 483.669C131.343 483.948 129.766 483.955 128.183 483.691C128.469 481.291 128.754 478.891 129.04 476.49C129.453 475.644 130.657 474.826 131.312 474.152C134.457 470.917 137.6 467.683 140.744 464.448C145.679 459.371 150.615 454.294 155.549 449.215C157.163 447.555 154.659 444.977 153.044 446.638C145.191 454.717 137.339 462.796 129.488 470.873C126.288 474.165 121.089 478.822 123.411 484.104C126.07 490.146 136.151 487.002 140.624 485.834C142.832 485.258 141.896 481.742 139.681 482.32Z" fill="#B5815E"/>
<path d="M137.329 493.926C136.748 491.087 139.449 487.767 141.138 485.635C142.05 484.485 143.248 483.464 144.265 482.418C147.295 479.3 150.324 476.184 153.353 473.067C157.585 468.713 161.818 464.358 166.05 460.004C167.664 458.344 165.16 455.766 163.544 457.427C157.962 463.17 152.38 468.913 146.798 474.656C141.64 479.965 132.18 486.429 133.912 494.894C134.382 497.189 137.798 496.218 137.329 493.926Z" fill="#B5815E"/>
<path d="M129.187 471.51C126.153 472.301 120.657 474.372 117.688 472.879C111.766 469.903 118.303 466.402 119.665 464.526C121.064 462.6 123.136 460.955 124.782 459.261C129.606 454.297 134.43 449.334 139.254 444.371C141.682 441.873 145.137 439.268 146.558 435.92C148.709 430.854 145.991 425.332 142.35 421.819C140.688 420.216 138.178 422.788 139.845 424.397C146.453 430.772 142.499 435.875 137.606 440.911C132.198 446.475 126.79 452.039 121.381 457.604C117.872 461.214 112.132 465.468 112.514 471.161C113.088 479.718 125.226 476.305 130.128 475.025C132.337 474.448 131.402 470.931 129.187 471.51Z" fill="#B5815E"/>
<path d="M134.221 418.265C134.952 421.073 135.683 423.879 136.414 426.688C136.76 428.016 138.438 428.456 139.375 427.492C141.373 425.437 143.37 423.382 145.368 421.326C146.306 420.361 145.877 418.636 144.586 418.281C141.856 417.528 139.128 416.776 136.399 416.023C134.194 415.415 133.254 418.931 135.456 419.539C138.186 420.291 140.914 421.044 143.643 421.796C143.382 420.781 143.122 419.765 142.862 418.75C140.864 420.806 138.867 422.86 136.869 424.916C137.856 425.184 138.843 425.453 139.83 425.721C139.098 422.913 138.367 420.106 137.636 417.298C137.048 415.032 133.63 415.991 134.221 418.265Z" fill="#B5815E"/>
<path d="M109.273 372.109C93.4027 362.683 77.5337 353.255 61.6633 343.829C59.685 342.653 57.8994 345.803 59.8749 346.977C75.7453 356.404 91.6143 365.83 107.485 375.257C109.463 376.432 111.25 373.284 109.273 372.109Z" fill="#B5815E"/>
<path d="M68.9909 369.93C66.8199 361.596 64.6503 353.26 62.4792 344.926C62.0668 345.674 61.6544 346.42 61.2421 347.168C69.3424 344.935 77.4441 342.702 85.5444 340.469C87.7438 339.862 86.8113 336.345 84.602 336.953C76.5017 339.187 68.4 341.419 60.2997 343.653C59.37 343.909 58.8159 344.946 59.0625 345.895C61.2336 354.23 63.4032 362.565 65.5742 370.899C66.1652 373.162 69.5833 372.203 68.9909 369.93Z" fill="#B5815E"/>
<path d="M87.9161 376.794C92.193 369.171 96.4699 361.55 100.748 353.927C101.89 351.892 98.8294 350.055 97.6886 352.087C93.4117 359.71 89.1348 367.331 84.8565 374.954C83.7143 376.989 86.7753 378.826 87.9161 376.794Z" fill="#B5815E"/>
<path d="M60.5321 268.436C65.1534 255.682 84.5071 265.193 93.6291 267.777C95.8299 268.399 96.7695 264.884 94.5715 264.262C82.8731 260.949 63.168 250.763 57.1154 267.468C56.319 269.668 59.7413 270.619 60.5321 268.436Z" fill="#B5815E"/>
<path d="M72.2757 258.176C69.1495 255.925 65.3261 252.819 66.4796 248.589C67.7579 243.906 72.4698 244.979 76.1274 245.794C79.3216 246.506 82.4761 247.544 85.6349 248.416C91.4324 250.014 97.7089 252.799 103.804 251.816C114.438 250.101 123.642 236.151 113.8 227.242C104.111 218.473 91.5897 230.034 94.6351 241.424C95.8538 245.982 99.3527 249.299 102.914 252.026C105.599 254.08 114.737 258.211 113.9 262.48C113.45 264.771 116.864 265.75 117.316 263.45C118.678 256.514 110.136 252.898 105.72 249.633C100.97 246.121 96.2563 241.315 98.134 234.712C101.624 222.442 116.819 228.887 113.846 239.686C112.492 244.599 107.79 247.534 103.111 248.197C96.9422 249.07 89.7857 245.787 83.8819 244.158C79.0807 242.834 73.3087 240.265 68.3304 241.84C57.1592 245.371 64.2491 256.833 70.4887 261.325C72.3593 262.671 74.1321 259.513 72.2757 258.176Z" fill="#B5815E"/>
<path d="M154.841 123.883C149.337 122.673 143.834 121.461 138.33 120.251C136.973 119.952 135.86 121.095 136.151 122.493C137.328 128.155 138.506 133.817 139.682 139.48C140.409 138.732 141.135 137.985 141.862 137.237C136.359 136.026 130.855 134.815 125.352 133.604C123.993 133.305 122.884 134.448 123.173 135.846C124.347 141.511 125.524 147.175 126.698 152.838C127.425 152.09 128.151 151.344 128.878 150.596C123.371 149.389 117.864 148.181 112.359 146.973C111 146.675 109.89 147.817 110.179 149.215C111.352 154.881 112.527 160.547 113.701 166.212C114.175 168.505 117.592 167.534 117.117 165.242C115.944 159.576 114.769 153.91 113.596 148.245C112.87 148.993 112.143 149.74 111.416 150.488C116.923 151.695 122.43 152.904 127.936 154.111C129.293 154.409 130.404 153.267 130.115 151.869C128.94 146.204 127.764 140.54 126.589 134.877C125.864 135.625 125.137 136.371 124.41 137.119C129.912 138.331 135.417 139.541 140.919 140.753C142.277 141.051 143.389 139.908 143.099 138.51C141.921 132.849 140.744 127.187 139.567 121.524C138.84 122.27 138.115 123.018 137.388 123.766C142.892 124.977 148.395 126.188 153.899 127.398C156.124 127.887 157.073 124.374 154.841 123.883Z" fill="#B5815E"/>
<path d="M169.478 138.945C163.974 137.735 158.471 136.524 152.967 135.314C151.609 135.015 150.497 136.158 150.787 137.556C151.965 143.218 153.143 148.879 154.319 154.542C155.046 153.794 155.771 153.048 156.498 152.3C150.996 151.088 145.492 149.878 139.989 148.666C138.631 148.367 137.52 149.51 137.809 150.909C138.984 156.573 140.16 162.238 141.335 167.901C142.062 167.153 142.788 166.406 143.515 165.658C138.008 164.451 132.501 163.244 126.995 162.035C125.636 161.738 124.527 162.879 124.816 164.278C125.989 169.944 127.162 175.61 128.337 181.274C128.812 183.568 132.229 182.596 131.754 180.304C130.581 174.638 129.407 168.972 128.232 163.308C127.507 164.055 126.78 164.802 126.053 165.55C131.56 166.758 137.067 167.966 142.572 169.174C143.93 169.471 145.041 168.329 144.752 166.931C143.577 161.267 142.401 155.604 141.226 149.939C140.499 150.687 139.773 151.434 139.047 152.182C144.549 153.393 150.053 154.603 155.556 155.815C156.914 156.114 158.026 154.971 157.736 153.573C156.558 147.911 155.38 142.249 154.203 136.586C153.477 137.333 152.75 138.081 152.023 138.829C157.527 140.039 163.03 141.251 168.534 142.461C170.759 142.951 171.71 139.437 169.478 138.945Z" fill="#B5815E"/>
<path d="M294.91 165.586L178.898 372.327H410.922L294.91 165.586Z" stroke="#B5815E" stroke-miterlimit="10"/>
<path d="M294.91 442.086L410.922 235.344H178.898L294.91 442.086Z" stroke="#B5815E" stroke-miterlimit="10"/>
<path d="M227.723 184.102V422.826L428.663 303.463L227.723 184.102Z" stroke="#B5815E" stroke-miterlimit="10"/>
<path d="M362.097 423.568V184.844L161.156 304.207L362.097 423.568Z" stroke="#B5815E" stroke-miterlimit="10"/>
</g>
</svg>
