<svg width="77" height="111" viewBox="0 0 77 111" fill="none" xmlns="http://www.w3.org/2000/svg">
<path d="M21.8633 8.56805L33.6677 12.2825L36.1401 0.835938L38.6125 12.2825L50.4159 8.56805L41.0849 16.3002L50.4159 24.0324L38.6125 20.3171L36.1401 31.7636L33.6677 20.3171L21.8633 24.0324L31.1942 16.3002L21.8633 8.56805Z" stroke="#B5815E" stroke-width="1.6667" stroke-miterlimit="10" stroke-linecap="round" stroke-linejoin="round"/>
<path d="M43.8945 92.7979C44.933 93.1821 46.0485 93.5043 47.1981 93.7758C53.0072 95.1436 57.3482 99.6677 58.4507 105.19C58.7792 106.836 59.1908 108.376 59.7075 109.605C60.2242 108.376 60.6358 106.836 60.9642 105.19C62.0668 99.6677 66.4078 95.1445 72.2168 93.7758C73.3664 93.5053 74.4819 93.1821 75.5204 92.7979C75.5204 92.7979 74.49 92.5772 72.9759 92.2737C66.8734 91.0488 62.1308 86.4993 61.0283 80.737C60.6898 78.9672 60.2572 77.3036 59.7064 75.9922C59.1567 77.3008 58.7251 78.9607 58.3866 80.7267C57.2861 86.473 52.5686 91.0178 46.4861 92.254C44.944 92.5678 43.8945 92.7979 43.8945 92.7979Z" stroke="#B5815E" stroke-width="1.6667" stroke-miterlimit="10" stroke-linecap="round" stroke-linejoin="round"/>
<path d="M16.4764 66.4219H10.1016" stroke="#B5815E" stroke-width="1.6667" stroke-miterlimit="10" stroke-linecap="round" stroke-linejoin="round"/>
<path d="M7.2069 66.4219H0.832031" stroke="#B5815E" stroke-width="1.6667" stroke-miterlimit="10" stroke-linecap="round" stroke-linejoin="round"/>
<path d="M8.65234 59.0859V64.6518" stroke="#B5815E" stroke-width="1.6667" stroke-miterlimit="10" stroke-linecap="round" stroke-linejoin="round"/>
<path d="M8.65234 68.1953V73.7612" stroke="#B5815E" stroke-width="1.6667" stroke-miterlimit="10" stroke-linecap="round" stroke-linejoin="round"/>
<path d="M8.65459 62.2266C8.65459 66.2049 8.86286 66.4256 12.6061 66.4256C8.86286 66.4256 8.65459 66.6464 8.65459 70.6247C8.65459 66.6464 8.44632 66.4256 4.70312 66.4256C8.44632 66.4256 8.65459 66.2049 8.65459 62.2266Z" stroke="#B5815E" stroke-width="1.6667" stroke-miterlimit="10" stroke-linecap="round" stroke-linejoin="round"/>
</svg>
