<svg width="26" height="26" viewBox="0 0 26 26" fill="none" xmlns="http://www.w3.org/2000/svg">
<path d="M12.8074 24.5625L20.6441 20.6625M12.8074 24.5625V20.0625M12.8074 24.5625L4.71257 20.771M20.6441 20.6625L24.5625 12.5625M20.6441 20.6625L18.1951 12.5625M20.6441 20.6625L20.1543 20.625M12.8074 20.0625L4.48088 20.6625M12.8074 20.0625L20.1543 20.625M4.71257 20.771L20.6441 4.7625M4.71257 20.771L4.48088 20.6625M24.5625 12.5625L20.6441 4.7625M24.5625 12.5625H18.1951M18.1951 12.5625L20.6441 4.7625M20.1543 20.625L4.97067 4.4625M20.6441 4.7625L12.8074 0.5625M20.6441 4.7625L12.8074 5.3625M12.8074 0.5625L4.97067 4.4625M12.8074 0.5625V5.3625M12.8074 5.3625L4.97067 4.4625M4.97067 4.4625L0.5625 12.5625M4.97067 4.4625L7.41966 12.5625M0.5625 12.5625L4.48088 20.6625M0.5625 12.5625H7.41966M7.41966 12.5625L4.48088 20.6625" stroke="#FF8936"/>
</svg>
