<svg width="228" height="41" viewBox="0 0 228 41" fill="none" xmlns="http://www.w3.org/2000/svg">
<path d="M224.893 29.2105C223.549 29.2105 222.454 30.1114 222.304 31.2668C215.12 30.954 195.473 30.691 169.028 30.5363C168.942 30.1711 168.842 29.8046 168.706 29.4418C168.244 28.2536 167.445 27.0811 166.229 26.2265C165.034 25.3486 163.445 24.9103 161.896 24.8811C160.34 24.8555 158.834 25.166 157.42 25.6165C156.009 26.0694 154.659 26.6696 153.392 27.3149C150.894 28.5604 148.389 29.8363 145.809 30.0956C145.264 30.1467 144.69 30.1419 144.123 30.0786C144.117 29.8302 144.116 29.5855 144.097 29.3274C143.978 27.7276 143.534 25.9184 142.547 24.1871C141.977 23.173 141.203 22.1965 140.279 21.3053C140.462 21.1312 140.651 20.9632 140.853 20.8086C141.801 20.1098 142.887 19.6495 143.906 19.4474C144.927 19.2405 145.873 19.3087 146.608 19.5302C148.115 19.9588 148.765 20.805 149.034 20.6783C149.152 20.6394 149.079 20.4214 148.824 20.0331C148.57 19.6508 148.036 19.1467 147.183 18.7218C146.325 18.303 145.101 18.09 143.802 18.2446C142.505 18.4041 141.14 18.9044 139.925 19.736C139.666 19.9223 139.415 20.128 139.17 20.3447C138.825 20.0805 138.479 19.8163 138.099 19.5814C136.12 18.359 133.694 17.6748 131.288 17.5043C128.495 17.3108 125.71 17.7661 123.27 18.6755C122.583 18.3139 121.904 17.9816 121.247 17.6663C118.69 16.4695 116.43 15.493 114.682 14.5056C114.507 14.4095 114.362 14.3133 114.197 14.2171C115.377 13.3989 116.242 12.6064 116.773 11.9672C117.148 11.5825 117.342 11.2233 117.502 11.0041C117.654 10.7777 117.727 10.6584 117.717 10.6535C117.706 10.6486 117.608 10.7558 117.43 10.9676C117.243 11.1734 117.019 11.5106 116.616 11.8722C116.029 12.4846 115.1 13.2382 113.85 14.0126C112.54 13.2102 111.574 12.4274 110.976 11.7992C110.241 11.0528 109.941 10.5792 109.9 10.6024C109.89 10.6072 109.962 10.7266 110.113 10.953C110.272 11.1734 110.466 11.5301 110.84 11.916C111.381 12.5674 112.274 13.3807 113.497 14.2207C113.28 14.3498 113.078 14.4777 112.841 14.6067C111.067 15.6002 108.781 16.5778 106.206 17.7795C105.603 18.068 104.98 18.3736 104.353 18.7011C101.803 17.7332 98.8686 17.2901 95.9668 17.5396C93.6176 17.7527 91.2533 18.4455 89.3537 19.6654C88.9935 19.8931 88.665 20.1475 88.3365 20.4019C88.0946 20.1877 87.8444 19.9856 87.5901 19.8005C86.4107 18.9933 85.0911 18.5063 83.8347 18.3407C82.5797 18.1679 81.3921 18.359 80.5426 18.7449C80.3199 18.8216 80.133 18.9385 79.9598 19.0493C79.7893 19.1625 79.6134 19.2502 79.4841 19.3707C79.2298 19.6142 78.9962 19.8066 78.8628 20.0063C78.5975 20.4093 78.4999 20.6564 78.5769 20.738C78.768 20.9449 79.3852 20.1621 80.8092 19.6556C81.5199 19.4109 82.456 19.3208 83.4869 19.4961C84.5137 19.6775 85.6258 20.1292 86.5976 20.8305C86.8217 20.9973 87.032 21.1775 87.2313 21.3674C86.3433 22.2343 85.5983 23.1815 85.0457 24.1628C84.0876 25.8454 83.6436 27.601 83.5158 29.1655C83.491 29.4759 83.4828 29.773 83.4773 30.0688C83.4251 30.0749 83.3742 30.0907 83.3206 30.0956C82.6965 30.165 82.0739 30.1504 81.4759 30.0713C78.8986 29.7462 76.4106 28.4606 73.9171 27.2078C72.6346 26.5673 71.2957 25.972 69.873 25.5398C68.4586 25.1015 66.941 24.8141 65.3864 24.875C63.8331 24.931 62.2715 25.429 61.0977 26.3251C59.9045 27.2053 59.1513 28.396 58.7183 29.5867C58.6069 29.902 58.5162 30.2198 58.4419 30.5376C32.0196 30.6934 12.3892 30.9552 5.2097 31.2681C5.05987 30.1127 3.96432 29.2117 2.61997 29.2117C1.17391 29.2117 0 30.2503 0 31.5323C0 32.8131 1.17253 33.8528 2.61997 33.8528C3.96432 33.8528 5.05987 32.9519 5.2097 31.7965C12.3685 32.1081 31.9083 32.3699 58.2179 32.5257C58.2193 33.9405 58.5616 35.3053 59.2104 36.4935C59.7616 37.4907 60.552 38.349 61.4922 38.9565C62.4269 39.5628 63.4688 39.939 64.4943 40.0863C65.5252 40.2178 66.5204 40.1046 67.3685 39.8295C68.2208 39.5275 68.8737 39.049 69.3562 38.5499C70.3335 37.5406 70.5631 36.44 70.5095 35.7497C70.5397 35.3966 70.4009 35.1385 70.3665 34.9632C70.3143 34.7891 70.2813 34.7014 70.2703 34.7051C70.2593 34.7087 70.2648 34.8037 70.2868 34.9814C70.2923 35.1604 70.3899 35.4173 70.3225 35.7569C70.2991 36.4193 69.9789 37.4383 68.9988 38.3088C68.5259 38.7508 67.8785 39.1221 67.1211 39.3547C66.3431 39.547 65.4592 39.5921 64.5534 39.4216C62.7362 39.0795 60.952 37.8437 60.1093 36.0053C59.6172 34.9644 59.3836 33.7591 59.4303 32.5318C67.0015 32.5757 75.1171 32.6098 83.645 32.6341C83.678 32.8508 83.7096 33.07 83.7468 33.2721C84.2059 35.5573 84.8492 36.8661 85.0787 36.8977C85.355 36.9221 85.0663 35.595 84.8258 33.3694C84.8065 33.1369 84.79 32.8885 84.7749 32.6365C88.5592 32.6475 92.4176 32.656 96.349 32.6621C96.3765 32.8009 96.3888 32.9397 96.4204 33.0785C96.6225 33.9794 96.9771 34.8682 97.4582 35.7131C97.9242 36.5666 98.5593 37.3616 99.3483 38.0605C100.137 38.7557 101.113 39.3327 102.201 39.6688C103.284 40.0121 104.451 40.1326 105.588 40.0717C106.733 40.006 107.828 39.7844 108.899 39.4009C110.033 39.0247 110.986 38.31 111.747 37.5016C112.478 36.6616 112.961 35.7046 113.304 34.7257C113.515 34.0525 113.622 33.3634 113.684 32.6767C113.709 32.6767 113.732 32.6767 113.757 32.6767C113.772 32.6767 113.787 32.6767 113.803 32.6767C113.953 34.4737 114.61 36.3085 116.004 37.761C116.755 38.5962 117.853 39.1513 118.943 39.5385C120.006 39.8636 121.124 40.0717 122.265 40.1022C123.404 40.1338 124.569 39.9804 125.63 39.586C126.694 39.2 127.64 38.5986 128.399 37.8827C129.922 36.446 130.793 34.6503 131.187 32.8569C131.2 32.7924 131.203 32.7278 131.215 32.6633C135.166 32.6572 139.042 32.6487 142.843 32.6378C142.833 32.8179 142.825 33.003 142.813 33.171C142.618 35.4014 142.314 36.7882 142.546 36.9233C142.732 37.0524 143.347 35.7959 143.831 33.5022C143.882 33.2282 143.929 32.9373 143.972 32.6341C152.442 32.6098 160.505 32.5757 168.031 32.5318C168.078 33.7895 167.825 35.024 167.3 36.076C166.434 37.8778 164.649 39.0393 162.871 39.3668C161.981 39.519 161.12 39.4593 160.37 39.2585C159.631 39.0381 159.023 38.6497 158.56 38.226C157.617 37.3701 157.317 36.3815 157.3 35.7448C157.234 35.4173 157.334 35.1726 157.337 34.9997C157.357 34.828 157.363 34.7367 157.35 34.7331C157.339 34.7294 157.306 34.8146 157.254 34.9851C157.218 35.1568 157.082 35.4088 157.111 35.7558C157.056 36.4315 157.284 37.5175 158.253 38.5146C158.724 39.0174 159.39 39.4667 160.226 39.7735C161.071 40.0364 162.058 40.1387 163.081 39.9963C164.104 39.8587 165.136 39.4593 166.06 38.8482C166.988 38.2309 167.763 37.3665 168.3 36.3633C168.909 35.2103 169.235 33.8906 169.242 32.5233C195.576 32.3675 215.134 32.1057 222.297 31.794C222.447 32.9494 223.542 33.8504 224.887 33.8504C226.333 33.8504 227.507 32.8118 227.507 31.5298C227.513 30.249 226.34 29.2105 224.893 29.2105ZM142.785 29.7827C142.58 29.7146 142.374 29.6512 142.182 29.5599C141.049 29.0388 140.099 28.1172 139.503 27.0373C138.923 25.9549 138.681 24.7131 138.936 23.5881C139.008 23.1888 139.169 22.826 139.361 22.4802C140.075 23.1876 140.685 23.957 141.163 24.7557C142.186 26.4456 142.62 28.1866 142.785 29.7827ZM84.8436 29.437C85.021 27.9602 85.4691 26.3555 86.3791 24.8227C86.8478 24.0264 87.4416 23.2558 88.1427 22.5472C88.331 22.8905 88.4863 23.2497 88.5578 23.6441C88.8066 24.791 88.5523 26.0584 87.931 27.1481C87.3028 28.2304 86.3158 29.1618 85.1474 29.6366C85.0416 29.6817 84.9261 29.7085 84.8176 29.7474C84.8272 29.6439 84.8313 29.5441 84.8436 29.437ZM60.02 29.8278C60.4612 28.8063 61.1746 27.8603 62.1547 27.2163C63.1211 26.5466 64.3609 26.2325 65.642 26.2289C66.9314 26.2337 68.2565 26.5198 69.5404 26.9521C70.8284 27.3879 72.0683 27.9528 73.2999 28.5944C74.5549 29.2263 75.8442 29.8972 77.2119 30.4475C71.1431 30.4694 65.3108 30.4962 59.7698 30.5278C59.8413 30.2916 59.9224 30.0579 60.02 29.8278ZM86.8726 30.4183C87.9887 29.7194 88.8932 28.7564 89.487 27.6619C90.1936 26.319 90.4849 24.7703 90.1289 23.3142C89.9942 22.6762 89.6959 22.0626 89.3124 21.5184C89.6451 21.2615 89.9846 21.0107 90.353 20.7855C92.0878 19.7275 94.1991 19.1321 96.3627 18.975C98.5084 18.8253 100.668 19.0968 102.621 19.6885C102.492 19.7676 102.363 19.8297 102.234 19.9125C100.907 20.7575 99.5751 21.8167 98.5771 23.1766C97.0692 25.1891 96.1318 27.73 96.118 30.4C92.9909 30.4049 89.909 30.411 86.8726 30.4183ZM97.3881 30.3976C97.3373 27.8956 98.1551 25.4594 99.549 23.5467C100.635 22.0772 102.081 20.9596 103.583 20.0245C105.189 20.6199 106.625 21.4234 107.732 22.4023C109.145 23.6234 110.287 25.11 111.049 26.7572C111.597 27.9041 111.897 29.1387 112.016 30.3842C107.054 30.3866 102.17 30.3903 97.3881 30.3976ZM110.278 36.8186C109.698 37.4834 108.887 37.8766 108.041 38.2041C107.111 38.4987 106.15 38.685 105.197 38.7216C103.284 38.8251 101.458 38.1725 100.174 36.9805C98.8823 35.8056 98.0645 34.2497 97.6754 32.6645C102.367 32.6718 107.153 32.6755 112.015 32.6755C111.875 34.2132 111.325 35.7095 110.278 36.8186ZM113.696 30.3854C113.56 28.8367 113.152 27.31 112.477 25.8795C111.585 24.0459 110.225 22.412 108.586 21.0971C107.621 20.2985 106.471 19.6276 105.223 19.0737C105.714 18.8071 106.201 18.5489 106.671 18.3042C109.155 17.0465 111.405 15.9812 113.137 14.9086C113.392 14.754 113.611 14.6006 113.843 14.4472C114.055 14.586 114.25 14.7248 114.481 14.8636C116.221 15.9435 118.485 17.0173 120.984 18.2921C121.437 18.527 121.9 18.7827 122.362 19.0372C120.95 19.6544 119.674 20.4227 118.631 21.3285C117.035 22.6908 115.749 24.3588 114.899 26.2021C114.269 27.5279 113.929 28.95 113.81 30.3866C113.792 30.3866 113.775 30.3866 113.757 30.3866C113.737 30.3854 113.717 30.3854 113.696 30.3854ZM124.788 20.4981C126.041 21.3565 127.233 22.3718 128.112 23.6514C129.449 25.5495 130.239 27.9455 130.184 30.3976C125.382 30.3903 120.477 30.3866 115.496 30.3854C115.637 29.0388 116.008 27.713 116.594 26.4699C117.395 24.8312 118.604 23.3799 120.056 22.2002C121.13 21.2944 122.481 20.5517 123.981 19.9965C124.249 20.1658 124.521 20.3167 124.788 20.4981ZM129.841 32.8277C129.639 33.6373 129.299 34.4238 128.858 35.1604C128.432 35.9055 127.855 36.5897 127.182 37.1607C125.846 38.3307 123.953 38.8701 122.034 38.724C121.083 38.6607 120.091 38.4452 119.207 38.1116C118.341 37.8157 117.636 37.2606 117.038 36.6263C116.469 35.9566 116.074 35.1604 115.79 34.3276C115.629 33.7895 115.541 33.2355 115.489 32.6743C120.366 32.6731 125.169 32.6694 129.875 32.6633C129.861 32.7181 129.856 32.7729 129.841 32.8277ZM128.887 23.0037C127.865 21.6584 126.517 20.6296 125.202 19.7823C125.129 19.736 125.057 19.7031 124.984 19.6581C126.993 19.0591 129.208 18.7985 131.39 18.9799C133.507 19.1674 135.571 19.7579 137.257 20.8122C137.584 21.0143 137.885 21.2396 138.185 21.4672C137.779 22.0443 137.467 22.6982 137.336 23.3763C137.002 24.8799 137.33 26.4651 138.099 27.8177C138.693 28.8404 139.549 29.7584 140.6 30.4195C137.589 30.4122 134.534 30.4049 131.433 30.4C131.423 27.6582 130.461 25.054 128.887 23.0037ZM150.292 30.4487C151.739 29.8704 153.103 29.1618 154.428 28.4934C156.849 27.2638 159.488 26.2094 162.064 26.2532C163.334 26.28 164.541 26.6465 165.481 27.3246C166.435 27.9869 167.103 28.9524 167.509 29.9727C167.581 30.1553 167.636 30.3416 167.694 30.5278C162.166 30.4962 156.346 30.4694 150.292 30.4487Z" fill="#BA9F8E"/>
<path d="M120.177 10.0507L119.861 10.9091C119.754 11.1818 119.659 11.53 119.56 11.849C119.463 12.174 119.351 12.493 119.331 12.8717C119.262 13.59 119.325 14.4094 119.857 15.1338C120.349 15.8765 121.207 16.3074 121.974 16.5363C122.364 16.6714 122.771 16.6983 123.168 16.7762C123.568 16.831 123.982 16.803 124.384 16.8115C124.764 16.7725 125.159 16.6958 125.559 16.6276C125.942 16.484 126.347 16.3634 126.727 16.1735C127.483 15.7705 128.121 15.1727 128.529 14.4447C128.943 13.7251 129.068 12.8352 128.825 12.0377C128.589 11.25 128.05 10.5791 127.349 10.1506C126.659 9.71349 125.757 9.57346 125.06 9.71834C124.356 9.84983 123.832 10.1761 123.481 10.5012C122.791 11.222 122.938 11.8563 123.14 11.8867C123.39 11.9512 123.589 11.5726 124.136 11.2463C124.418 11.0941 124.784 10.9407 125.207 10.9042C125.625 10.8738 126.044 10.9675 126.443 11.2353C126.829 11.5008 127.147 11.9342 127.265 12.4042C127.39 12.8607 127.306 13.3842 127.02 13.8457C126.744 14.3083 126.301 14.7064 125.805 14.9524C125.525 15.0364 125.273 15.1642 124.995 15.2238C124.708 15.2506 124.441 15.3395 124.165 15.3249C123.031 15.3493 121.63 15.012 121.232 14.2827C120.987 13.9285 120.888 13.4183 120.954 12.8948C120.946 12.6428 121.072 12.3457 121.129 12.0718C121.199 11.7942 121.265 11.5178 121.371 11.2025C121.788 10.0422 122.077 8.62142 121.677 7.33575C121.287 6.00381 120.144 5.07729 119.145 4.52089C118.129 3.93528 117.142 3.53838 116.377 3.10373C115.601 2.66665 115.002 2.18207 114.614 1.71577C113.779 0.781958 113.957 -0.00576015 113.856 0.0100672C113.845 0.00884975 113.832 0.0539044 113.819 0.131824C113.806 0.0441644 113.792 -0.000884832 113.781 0.00033266C113.678 -0.0191472 113.857 0.819714 112.979 1.77544C112.572 2.2527 111.952 2.74215 111.16 3.17923C110.374 3.61509 109.38 4.00833 108.357 4.59394C107.853 4.8971 107.319 5.238 106.87 5.71769C106.412 6.1779 106.026 6.77448 105.854 7.42462C105.473 8.71395 105.788 10.1214 106.198 11.2865C106.304 11.6043 106.352 11.866 106.429 12.1521C106.502 12.4334 106.588 12.7195 106.584 12.9739C106.617 13.4914 106.535 14.0112 106.253 14.3424C105.794 15.0437 104.379 15.3712 103.251 15.3237C102.141 15.2981 100.991 14.7417 100.453 13.7994C100.179 13.3404 100.111 12.8278 100.227 12.3725C100.343 11.905 100.651 11.474 101.034 11.2C101.805 10.6096 102.798 10.8312 103.406 11.138C104.005 11.463 104.231 11.877 104.493 11.8636C104.705 11.8892 104.867 11.2561 104.173 10.4976C103.823 10.1506 103.281 9.79994 102.55 9.65384C101.824 9.50166 100.875 9.63801 100.155 10.0933C99.4266 10.5426 98.8768 11.2451 98.6486 12.0633C98.4081 12.896 98.5771 13.803 99.0239 14.5275C99.4623 15.2604 100.13 15.8533 100.911 16.2405C101.314 16.3841 101.706 16.5607 102.104 16.6496C102.507 16.7056 102.902 16.8115 103.28 16.8066C104.092 16.8334 104.897 16.7348 105.681 16.4925C106.444 16.2478 107.304 15.7766 107.744 15.012C108.212 14.2767 108.29 13.4646 108.187 12.7536C108.169 12.3737 108.027 12.0791 107.945 11.7443C107.849 11.4167 107.752 11.0893 107.647 10.8165L107.34 9.96308C107.258 9.69402 107.19 9.42371 107.145 9.15708C107.054 8.6226 107.051 8.09789 107.163 7.6182C107.375 6.66247 108.131 5.90639 109.014 5.31712C109.894 4.71568 110.829 4.24696 111.622 3.69665C112.405 3.15121 113.002 2.5522 113.362 1.97876C113.568 1.70969 113.648 1.40898 113.754 1.17766C113.773 1.06809 113.795 0.969449 113.814 0.875702C113.831 0.964579 113.85 1.0547 113.867 1.15696C113.971 1.38464 114.047 1.67806 114.25 1.94591C114.603 2.51205 115.195 3.11225 115.977 3.6589C116.764 4.21042 117.706 4.6901 118.587 5.30494C119.46 5.9149 120.232 6.68679 120.411 7.67174C120.511 8.16239 120.495 8.69568 120.392 9.23503C120.337 9.50775 120.268 9.77558 120.177 10.0507Z" fill="#BA9F8E"/>
<path d="M110.746 8.31339C111.391 8.31339 113.758 11.5434 113.758 12.4236C113.758 11.5422 116.123 8.31339 116.768 8.31339C116.123 8.31339 113.758 5.08337 113.758 4.20312C113.756 5.08459 111.391 8.31339 110.746 8.31339Z" fill="#BA9F8E"/>
</svg>
