<svg width="204" height="35" viewBox="0 0 204 35" fill="none" xmlns="http://www.w3.org/2000/svg">
<path d="M201.672 4.0752C201.085 4.23644 200.535 4.18966 200.187 3.71087C200.051 3.52502 200.011 3.18531 200.065 2.91823C200.076 2.86161 200.119 2.81852 200.14 2.7656H148.253C149.348 3.04622 150.42 3.41177 151.419 3.98041C153.066 4.85553 154.558 6.14174 155.452 7.84396C156.342 9.52772 156.612 11.4724 156.201 13.2633C155.811 15.0492 154.672 16.6923 153.063 17.5047C151.605 18.2518 149.983 18.4278 148.492 18.1004C147 17.7668 145.66 16.7945 144.929 15.5107C144.205 14.2418 143.994 12.7205 144.49 11.3912C144.897 10.0041 146.022 9.07231 147.143 8.62799C148.297 8.18982 149.625 8.34244 150.507 8.90369C151.387 9.44279 151.859 10.2022 152.068 10.8533C152.431 12.2626 151.735 12.9654 151.19 12.7795C150.571 12.6146 150.326 12.2097 149.951 11.8072C149.744 11.6029 149.503 11.3555 149.185 11.1918C148.887 11.0392 148.523 10.9579 148.001 11.0785C147.515 11.2361 146.898 11.582 146.657 12.2121C146.296 12.8054 146.299 13.7543 146.653 14.5851C147.013 15.4123 147.767 16.1631 148.853 16.4942C149.926 16.8019 151.218 16.7243 152.298 16.168C154.694 15.0319 155.593 11.3235 154.117 8.6083C152.694 5.84019 149.307 4.23888 145.957 3.72809C142.563 3.11761 139.035 3.5767 135.865 4.80506C132.688 6.07773 129.728 7.88087 126.59 8.91107C123.441 9.97204 120.135 9.76896 117.533 8.8003C114.874 7.89073 112.929 6.27219 111.404 4.94291C109.907 3.54839 110.141 3.32439 111.669 4.62782C113.221 5.86972 115.169 7.36517 117.738 8.14305C120.267 8.97754 123.295 9.07479 126.25 8.00644C129.213 6.94793 132.083 5.10538 135.358 3.68871C136.239 3.32069 137.159 3.01299 138.1 2.7656H114.999C114.867 2.7656 114.759 2.45912 114.759 2.08126C114.759 1.7034 114.866 1.39692 114.999 1.39692H200.139C200.118 1.344 200.075 1.30093 200.064 1.24431C200.009 0.977224 200.05 0.637522 200.185 0.451668C200.534 -0.0271206 201.084 -0.0738983 201.671 0.0873394C202.604 0.343349 203.65 1.96803 203.699 2.03942C203.708 2.05173 203.712 2.0665 203.712 2.08004V2.0825C203.712 2.09727 203.708 2.1108 203.699 2.12434C203.651 2.19573 202.605 3.82042 201.672 4.0752Z" fill="#D2B29E"/>
<path d="M117.358 11.7728C118.131 12.6442 118.914 13.603 119.424 14.8695C119.678 15.4911 119.863 16.2099 119.805 16.9914C119.771 17.7718 119.42 18.5373 118.939 19.1491C117.92 20.3331 116.577 20.8784 115.271 21.3744C114.606 21.5639 113.933 21.7559 113.251 21.9172C112.924 21.9762 112.59 22.0366 112.26 22.0969C112.22 22.6372 112.132 23.1837 111.951 23.7326C111.585 24.9314 110.812 26.0736 109.764 26.8798C109.155 27.3205 108.492 27.6528 107.808 27.9174C107.773 28.406 107.732 28.8959 107.656 29.3969C107.472 30.6092 107.112 31.8991 106.28 33.0708C105.477 34.2709 103.878 35.066 102.432 35.0045L102.398 35.0069L102.276 35.0008L102.218 34.9946L102.104 34.9835L101.875 34.9602L101.417 34.9146C101.062 34.8432 100.64 34.6968 100.267 34.5663C99.9349 34.3829 99.61 34.1872 99.306 33.973C99.045 33.7183 98.7607 33.4721 98.5355 33.1964C97.6357 32.0677 97.2431 30.7914 96.9945 29.5889C96.8726 28.9956 96.7877 28.411 96.7274 27.8325C96.2092 27.6183 95.7033 27.366 95.2147 27.0497C94.1451 26.3284 93.254 25.297 92.7752 24.1265C92.502 23.4372 92.3531 22.7406 92.2706 22.0526C91.4718 21.9049 90.6804 21.7338 89.905 21.5036C89.2379 21.3424 88.5917 21.0261 87.9492 20.791C87.3276 20.4303 86.6913 20.1473 86.1485 19.6155C85.8543 19.4001 85.6106 19.1109 85.3965 18.7835C85.2882 18.6247 85.1663 18.477 85.0777 18.3072L84.8721 17.757C84.5977 17.0284 84.6334 16.2259 84.7835 15.5526C85.1072 14.1803 85.8236 13.1304 86.5301 12.1875C88.0144 10.3622 89.6453 8.98127 91.1616 7.78491C94.2214 5.42051 96.8985 3.83645 98.7705 2.79271C100.649 1.7576 101.747 1.29481 101.806 1.40066C101.862 1.29358 102.966 1.7416 104.861 2.74595C106.751 3.75645 109.449 5.29866 112.57 7.57076C114.119 8.72157 115.787 10.0459 117.358 11.7728ZM99.8254 11.6571C99.3355 14.3366 98.8013 17.485 98.5084 20.935C99.8475 20.9867 101.208 21.0051 102.569 21.0236C103.67 21.0125 104.741 20.9854 105.8 20.9448C105.375 17.4555 104.72 14.2812 104.13 11.5857C102.981 6.54178 102.019 3.08196 101.813 1.87576C101.647 3.08688 100.798 6.57747 99.8254 11.6571ZM101.125 2.78533C100.262 4.24755 98.6856 6.83103 96.9182 10.3906C95.616 13.1624 94.0184 16.6468 93.8473 20.5362C93.9728 20.5534 94.0934 20.5768 94.219 20.594C95.0916 20.7122 95.9914 20.786 96.8997 20.8451C97.2886 17.2782 97.9484 14.0892 98.5835 11.39C99.5644 7.37505 100.508 4.40263 101.125 2.78533ZM98.3619 22.7837C98.3127 23.9973 98.2955 25.2613 98.3705 26.5254C99.6481 26.8724 101.071 26.9943 102.453 26.9857C103.055 26.9586 103.654 26.9315 104.249 26.9044C104.788 26.8121 105.335 26.7814 105.86 26.6534C105.956 26.6324 106.04 26.5931 106.135 26.5684C106.168 25.2687 106.106 23.9739 106.004 22.7271C104.87 22.7751 103.733 22.8058 102.6 22.8181C101.162 22.7997 99.7527 22.7787 98.3644 22.7184C98.3656 22.7406 98.3631 22.7615 98.3619 22.7837ZM105.359 11.2755C106.101 14.0018 106.892 17.2339 107.416 20.866C108.495 20.802 109.556 20.7122 110.601 20.5854C110.595 20.5091 110.596 20.434 110.589 20.3577C110.42 18.4081 109.833 16.536 109.161 14.8473C108.484 13.1525 107.727 11.6103 106.987 10.2281C105.101 6.7658 103.456 4.24262 102.545 2.79887C103.214 4.40509 104.25 7.32951 105.359 11.2755ZM108.709 25.473C109.736 24.7148 110.302 23.5948 110.52 22.3676C109.58 22.4833 108.626 22.572 107.661 22.636C107.767 23.6982 107.855 24.7924 107.872 25.9222C108.158 25.7795 108.456 25.6502 108.709 25.473ZM98.7139 29.2172C99.1164 31.3637 100.305 33.3306 102.419 33.2075C104.53 33.3072 105.599 31.2578 105.92 29.1051C105.957 28.8848 105.97 28.6621 105.997 28.4405C105.454 28.5513 104.896 28.6079 104.341 28.6941C103.742 28.7224 103.139 28.7507 102.532 28.7778C101.196 28.779 99.866 28.6928 98.5822 28.411C98.6253 28.6805 98.6561 28.9513 98.7139 29.2172ZM96.1907 25.5875C96.3261 25.6761 96.4726 25.7524 96.6178 25.8312C96.6031 24.753 96.6498 23.7019 96.7102 22.684C96.7114 22.6606 96.7151 22.6397 96.7175 22.6175C95.8141 22.5523 94.9156 22.4698 94.0257 22.3443C94.1057 22.7258 94.2067 23.1012 94.3544 23.4594C94.7285 24.3247 95.3723 25.0398 96.1907 25.5875ZM91.9629 8.76957C90.5388 9.99178 89.0114 11.3949 87.7104 13.0934C87.0987 13.9501 86.5276 14.9015 86.3294 15.8702C86.1251 16.8413 86.4328 17.7041 87.2452 18.3761C87.6095 18.7417 88.1621 18.973 88.6557 19.2586C89.2305 19.4494 89.7671 19.7177 90.3887 19.858C90.9795 20.0254 91.5924 20.1608 92.2177 20.279C92.358 18.1681 92.9119 16.2763 93.5457 14.584C94.2276 12.7968 95.0178 11.214 95.7907 9.80592C98.0616 5.77006 100.09 3.12749 101.112 2.00991C100.656 2.33977 99.9915 2.79764 99.1373 3.3872C97.3945 4.60325 94.8442 6.33994 91.9629 8.76957ZM102.58 2.05791C103.653 3.18411 105.721 5.74052 108.092 9.6016C108.92 10.9764 109.767 12.5273 110.535 14.2738C111.295 16.0203 111.992 17.9798 112.237 20.2125C112.241 20.2531 112.242 20.2962 112.244 20.338C114.404 19.9516 116.488 19.3226 117.666 18.0906C118.312 17.3619 118.325 16.4166 117.953 15.4406C117.598 14.4683 116.925 13.5636 116.236 12.7488C114.833 11.1118 113.259 9.75914 111.796 8.57756C107.436 5.1805 104.036 3.05734 102.58 2.05791Z" fill="#D2B29E"/>
<path d="M2.0407 0.0873394C2.62657 -0.0738983 3.17798 -0.0271206 3.5263 0.451668C3.66169 0.637522 3.7023 0.977224 3.64815 1.24431C3.63707 1.30093 3.59399 1.344 3.57307 1.39692H88.7125C88.8454 1.39692 88.9525 1.7034 88.9525 2.08126C88.9525 2.45912 88.8454 2.7656 88.7125 2.7656H65.6113C66.5528 3.01422 67.4723 3.32069 68.3535 3.68871C71.6287 5.10538 74.499 6.94793 77.4616 8.00644C80.418 9.07479 83.4446 8.97877 85.9739 8.14305C88.5414 7.36517 90.491 5.86972 92.0431 4.62782C93.5705 3.32439 93.8044 3.54839 92.3077 4.94291C90.7827 6.27219 88.838 7.88949 86.1782 8.8003C83.5763 9.76896 80.2691 9.97204 77.1219 8.91107C73.9845 7.88087 71.0232 6.07896 67.8464 4.80506C64.6783 3.57793 61.1483 3.11884 57.7549 3.72809C54.4047 4.23765 51.0174 5.83896 49.5946 8.6083C48.1189 11.3235 49.0174 15.0319 51.4138 16.168C52.4932 16.7243 53.7856 16.8019 54.8588 16.4942C55.9444 16.1631 56.7001 15.4123 57.0583 14.5851C57.4128 13.7531 57.4152 12.8054 57.0546 12.2121C56.8134 11.582 56.1967 11.2361 55.7106 11.0785C55.1887 10.9592 54.8231 11.0392 54.5265 11.1918C54.209 11.3555 53.9677 11.6029 53.7609 11.8072C53.3855 12.2097 53.1418 12.6146 52.5215 12.7795C51.9762 12.9654 51.2808 12.2626 51.6439 10.8533C51.8532 10.201 52.3233 9.44156 53.2046 8.90369C54.0859 8.34244 55.4152 8.18982 56.5684 8.62799C57.6897 9.07231 58.8147 10.0041 59.2221 11.3912C59.7193 12.7205 59.5076 14.2418 58.7839 15.5107C58.0528 16.7945 56.7124 17.768 55.2207 18.1004C53.7314 18.4278 52.1079 18.2518 50.6494 17.5047C49.0407 16.6911 47.9022 15.0492 47.5121 13.2633C47.101 11.4724 47.3705 9.52772 48.2604 7.84396C49.1552 6.14174 50.647 4.85553 52.2938 3.98041C53.2932 3.41177 54.3653 3.04499 55.4595 2.7656H3.57307C3.59399 2.81852 3.63707 2.86161 3.64815 2.91823C3.7023 3.18531 3.66169 3.52502 3.5263 3.71087C3.17798 4.18966 2.62657 4.23644 2.0407 4.0752C1.10774 3.81919 0.0615436 2.19449 0.0123108 2.1231C0.00369509 2.1108 0 2.09603 0 2.08126V2.0788C0 2.06526 0.00369509 2.05049 0.0123108 2.03818C0.0615436 1.96802 1.10774 0.343349 2.0407 0.0873394Z" fill="#D2B29E"/>
</svg>
