<svg width="382" height="382" viewBox="0 0 382 382" fill="none" xmlns="http://www.w3.org/2000/svg">
<g opacity="0.2">
<path d="M190.635 367.141C288.119 367.141 367.146 288.114 367.146 190.63C367.146 93.1464 288.119 14.1201 190.635 14.1201C93.1513 14.1201 14.125 93.1464 14.125 190.63C14.125 288.114 93.1513 367.141 190.635 367.141Z" stroke="#FE6A86" stroke-width="1.25" stroke-miterlimit="10"/>
<path d="M190.625 380.625C295.559 380.625 380.625 295.559 380.625 190.625C380.625 85.6909 295.559 0.625 190.625 0.625C85.6909 0.625 0.625 85.6909 0.625 190.625C0.625 295.559 85.6909 380.625 190.625 380.625Z" stroke="#FE6A86" stroke-width="1.25" stroke-miterlimit="10"/>
<path d="M190.632 286.681C243.677 286.681 286.678 243.68 286.678 190.635C286.678 137.59 243.677 94.5889 190.632 94.5889C137.587 94.5889 94.5859 137.59 94.5859 190.635C94.5859 243.68 137.587 286.681 190.632 286.681Z" stroke="#FE6A86" stroke-width="1.25" stroke-miterlimit="10"/>
<path d="M190.637 277.077C238.377 277.077 277.078 238.376 277.078 190.636C277.078 142.896 238.377 104.194 190.637 104.194C142.897 104.194 104.195 142.896 104.195 190.636C104.195 238.376 142.897 277.077 190.637 277.077Z" stroke="#FE6A86" stroke-width="1.25" stroke-miterlimit="10"/>
<path d="M190.625 190.63V14.1201" stroke="#FE6A86" stroke-width="1.25" stroke-miterlimit="10"/>
<path d="M190.628 190.626L102.373 37.7637" stroke="#FE6A86" stroke-width="1.25" stroke-miterlimit="10"/>
<path d="M190.63 190.64L37.7676 102.385" stroke="#FE6A86" stroke-width="1.25" stroke-miterlimit="10"/>
<path d="M190.635 190.625H14.125" stroke="#FE6A86" stroke-width="1.25" stroke-miterlimit="10"/>
<path d="M190.63 190.625L37.7676 278.88" stroke="#FE6A86" stroke-width="1.25" stroke-miterlimit="10"/>
<path d="M190.628 190.625L102.373 343.487" stroke="#FE6A86" stroke-width="1.25" stroke-miterlimit="10"/>
<path d="M190.625 190.625V367.135" stroke="#FE6A86" stroke-width="1.25" stroke-miterlimit="10"/>
<path d="M190.625 190.625L278.88 343.487" stroke="#FE6A86" stroke-width="1.25" stroke-miterlimit="10"/>
<path d="M190.625 190.625L343.487 278.88" stroke="#FE6A86" stroke-width="1.25" stroke-miterlimit="10"/>
<path d="M190.625 190.625H367.135" stroke="#FE6A86" stroke-width="1.25" stroke-miterlimit="10"/>
<path d="M190.625 190.64L343.487 102.385" stroke="#FE6A86" stroke-width="1.25" stroke-miterlimit="10"/>
<path d="M190.625 190.626L278.88 37.7637" stroke="#FE6A86" stroke-width="1.25" stroke-miterlimit="10"/>
<path d="M210.133 54.7592C209.674 51.122 212.592 41.0491 217.559 46.8163C220.518 50.2514 220.094 56.935 219.993 61.1685C219.838 67.5732 219.059 74.0281 217.809 80.3121C217.523 81.7488 219.727 82.3643 220.014 80.9202C221.959 71.1436 223.924 59.525 221.36 49.7429C220.397 46.0691 217.715 41.9563 213.339 43.1873C208.494 44.5509 207.305 50.4663 207.847 54.7602C208.028 56.1997 210.317 56.218 210.133 54.7592Z" fill="#FE6A86"/>
<path d="M241.419 63.7882C244.057 60.2525 246.14 54.071 242.058 50.6286C238.142 47.3252 233.431 51.1087 230.88 54.2127C224.785 61.6317 220.875 71.3031 217.808 80.339C217.335 81.7355 219.542 82.3346 220.013 80.9472C221.82 75.6254 224.026 70.395 226.578 65.3896C228.4 61.8173 230.423 58.0036 233.165 55.0404C235.394 52.6315 239.578 49.5448 241.614 53.996C242.967 56.9519 241.194 60.2909 239.445 62.6349C238.564 63.8138 240.548 64.9552 241.419 63.7882Z" fill="#FE6A86"/>
<path d="M288.081 110.325C283.855 114.223 277.351 114.512 273.164 110.325C269.099 106.26 269.102 99.4714 273.164 95.4089C277.197 91.3766 284.054 91.3016 288.081 95.4089C292.233 99.6442 292.015 106.06 288.081 110.325C287.085 111.405 288.697 113.027 289.698 111.942C294.443 106.798 294.763 98.897 289.698 93.792C284.794 88.8506 276.451 88.8506 271.548 93.792C266.631 98.7471 266.598 106.992 271.548 111.942C276.635 117.03 284.566 116.674 289.698 111.942C290.782 110.943 289.162 109.329 288.081 110.325Z" fill="#FE6A86"/>
<path d="M282.882 70.5786C289.656 78.0963 281.757 88.1034 288.087 95.3788C289.055 96.4909 290.666 94.8675 289.704 93.7618C286.211 89.7478 288.443 84.2038 288.475 79.4691C288.502 75.3554 287.267 72.0337 284.499 68.9617C283.512 67.867 281.899 69.4876 282.882 70.5786Z" fill="#FE6A86"/>
<path d="M314.511 98.9976C311.438 96.2292 308.133 94.9808 304.003 95.022C299.263 95.0696 293.726 97.2874 289.711 93.7928C288.605 92.8307 286.982 94.4412 288.094 95.4098C295.365 101.738 305.379 93.844 312.894 100.615C313.984 101.597 315.607 99.9844 314.511 98.9976Z" fill="#FE6A86"/>
<path d="M337.181 145.894C327.073 148.602 316.965 151.311 306.859 154.019C305.439 154.399 306.041 156.605 307.467 156.224C317.574 153.516 327.681 150.807 337.789 148.099C339.208 147.718 338.606 145.512 337.181 145.894Z" fill="#FE6A86"/>
<path d="M339.722 155.399C329.614 158.107 319.507 160.816 309.4 163.524C307.98 163.904 308.582 166.11 310.008 165.729C320.116 163.021 330.222 160.312 340.33 157.604C341.749 157.222 341.147 155.017 339.722 155.399Z" fill="#FE6A86"/>
<path d="M337.37 134.091C335.245 139.916 336.182 146.278 337.672 152.141C338.035 153.566 340.24 152.963 339.877 151.533C338.479 146.034 337.582 140.162 339.575 134.699C340.08 133.314 337.871 132.717 337.37 134.091Z" fill="#FE6A86"/>
<path d="M348.054 166.28C343.585 162.591 341.405 156.963 339.889 151.527C339.495 150.111 337.288 150.713 337.684 152.135C339.296 157.921 341.682 163.972 346.436 167.897C347.564 168.827 349.19 167.218 348.054 166.28Z" fill="#FE6A86"/>
<path d="M309.872 177.709C311.996 171.884 311.06 165.521 309.569 159.658C309.207 158.233 307.001 158.837 307.364 160.266C308.763 165.765 309.66 171.638 307.667 177.1C307.162 178.485 309.371 179.082 309.872 177.709Z" fill="#FE6A86"/>
<path d="M299.202 145.522C303.672 149.21 305.852 154.838 307.367 160.275C307.761 161.69 309.968 161.088 309.572 159.666C307.96 153.881 305.575 147.829 300.819 143.905C299.692 142.975 298.066 144.583 299.202 145.522Z" fill="#FE6A86"/>
<path d="M146.995 67.9826C154.054 66.0913 161.114 64.199 168.174 62.3077C169.593 61.9273 168.992 59.7213 167.566 60.1027C160.505 61.994 153.446 63.8863 146.386 65.7776C144.966 66.1589 145.569 68.3649 146.995 67.9826Z" fill="#FE6A86"/>
<path d="M140.911 49.2028C146.797 53.1281 150.401 58.5953 152.331 65.3786C152.734 66.7916 154.941 66.1908 154.536 64.7705C152.44 57.4037 148.453 51.4874 142.066 47.2283C140.838 46.4107 139.691 48.3898 140.911 49.2028Z" fill="#FE6A86"/>
<path d="M152.501 86.2339C155.898 79.3052 156.369 72.2557 154.531 64.7801C154.18 63.3516 151.974 63.957 152.326 65.3883C154.023 72.2868 153.66 78.6897 150.526 85.0806C149.882 86.3967 151.852 87.5563 152.501 86.2339Z" fill="#FE6A86"/>
<path d="M162.187 41.818C158.79 48.7467 158.319 55.7961 160.157 63.2717C160.508 64.7003 162.714 64.0948 162.362 62.6636C160.666 55.765 161.029 49.3622 164.162 42.9712C164.807 41.6552 162.836 40.4955 162.187 41.818Z" fill="#FE6A86"/>
<path d="M173.786 78.8406C167.9 74.9153 164.296 69.4481 162.366 62.6648C161.963 61.2518 159.756 61.8526 160.161 63.273C162.258 70.6397 166.244 76.556 172.631 80.8152C173.86 81.6337 175.006 79.6537 173.786 78.8406Z" fill="#FE6A86"/>
<path d="M295.623 280.968C298.726 277.605 298.936 272.433 295.623 269.095C292.418 265.864 286.955 265.864 283.749 269.095C280.535 272.335 280.513 277.732 283.749 280.968C287.076 284.295 292.268 284.063 295.623 280.968C296.707 279.969 295.087 278.354 294.006 279.351C291.557 281.61 287.792 281.778 285.366 279.351C283.011 276.996 283.012 273.066 285.366 270.711C287.706 268.372 291.669 268.335 294.006 270.711C296.415 273.162 296.282 276.883 294.006 279.351C293.01 280.431 294.623 282.053 295.623 280.968Z" fill="#FE6A86"/>
<path d="M283.752 281.003C286.149 283.073 288.788 283.748 291.751 284.69C297.279 286.45 304.015 291.825 301.411 298.445C298.444 305.985 290.011 305.424 285.137 300.463C281.665 296.928 279.928 292.201 278.932 287.446C278.004 283.011 277.906 277.274 273.219 274.985C268.31 272.586 264.764 276.768 263.233 281.011C262.733 282.398 264.942 282.995 265.438 281.619C266.376 279.021 268.25 275.734 271.602 276.781C273.645 277.42 274.773 279.349 275.376 281.259C276.485 284.778 276.633 288.544 277.759 292.078C279.889 298.759 285.386 307.031 293.33 306.69C299.75 306.414 305.3 300.278 304.037 293.82C303.346 290.284 300.979 287.123 298.07 285.082C294.189 282.359 288.967 282.494 285.37 279.387C284.261 278.428 282.637 280.039 283.752 281.003Z" fill="#FE6A86"/>
<path d="M327.261 220.333C319.814 217.902 322.78 206.494 330.407 208.527C338.035 210.56 334.93 221.952 327.261 220.333C325.826 220.03 325.212 222.234 326.653 222.538C331.116 223.48 335.706 221.203 336.941 216.612C338.124 212.217 335.426 207.489 331.014 206.323C326.74 205.193 322.192 207.654 320.848 211.873C319.358 216.549 322.162 221.073 326.652 222.538C328.055 222.995 328.655 220.789 327.261 220.333Z" fill="#FE6A86"/>
<path d="M330.396 208.529C339.154 211.448 337.01 224.925 334.693 231.471C333.014 236.213 330.1 241.265 325.967 244.326C324.797 245.192 325.937 247.178 327.121 246.301C332.999 241.948 336.643 234.643 338.105 227.643C339.664 220.177 339.713 209.228 331.004 206.325C329.605 205.859 329.005 208.065 330.396 208.529Z" fill="#FE6A86"/>
<path d="M316.637 228.813C324.083 231.244 321.117 242.652 313.491 240.619C305.862 238.586 308.967 227.194 316.637 228.813C318.072 229.116 318.685 226.913 317.245 226.608C312.782 225.666 308.192 227.943 306.956 232.534C305.774 236.929 308.472 241.657 312.883 242.823C317.156 243.953 321.704 241.493 323.049 237.273C324.539 232.598 321.735 228.074 317.245 226.608C315.843 226.151 315.242 228.358 316.637 228.813Z" fill="#FE6A86"/>
<path d="M313.493 240.645C304.735 237.726 306.879 224.25 309.197 217.705C310.875 212.963 313.789 207.911 317.922 204.85C319.092 203.983 317.953 201.998 316.768 202.875C310.89 207.227 307.247 214.533 305.784 221.533C304.225 228.999 304.176 239.948 312.886 242.85C314.284 243.317 314.884 241.109 313.493 240.645Z" fill="#FE6A86"/>
<path d="M238.534 331.396C238.023 333.204 237.51 335.079 236.583 336.73C235.759 338.197 234.145 338.883 232.677 337.355C232.014 336.665 231.751 334.786 231.462 333.79C230.681 331.099 230.009 328.371 229.284 325.665C228.077 321.162 226.87 316.658 225.663 312.154C225.283 310.734 223.077 311.336 223.458 312.762C225.339 319.784 227.222 326.807 229.103 333.829C229.837 336.571 230.586 340.162 233.808 340.933C238.208 341.986 239.899 334.975 240.737 332.005C241.138 330.585 238.933 329.979 238.534 331.396Z" fill="#FE6A86"/>
<path d="M244.081 336.394C240.061 335.167 238.952 324.796 238.031 321.358C236.99 317.469 235.947 313.579 234.905 309.691C234.525 308.271 232.319 308.873 232.7 310.299C234.069 315.405 235.437 320.511 236.805 325.617C237.975 329.982 238.437 337.062 243.474 338.598C244.884 339.03 245.487 336.824 244.081 336.394Z" fill="#FE6A86"/>
<path d="M229.277 333.884C228.762 335.713 228.058 339.762 226.301 340.762C223.766 342.203 222.954 338.819 222.559 337.594C222.105 336.19 221.79 334.725 221.409 333.3C220.306 329.186 219.204 325.07 218.101 320.955C216.634 315.48 215.384 309.499 209.202 307.491C207.799 307.036 207.198 309.243 208.594 309.696C212.714 311.034 214.089 314.821 215.088 318.548C216.425 323.537 217.761 328.526 219.098 333.515C219.938 336.647 220.377 341.222 223.479 342.968C228.397 345.735 230.57 337.729 231.482 334.493C231.883 333.072 229.677 332.467 229.277 333.884Z" fill="#FE6A86"/>
<path d="M218.697 331.383C218.521 332.208 218.022 335.583 217.319 336.048C215.65 337.155 214.799 334.875 214.445 333.818C213.658 331.471 213.186 328.823 213.168 326.35C213.121 319.756 217.104 313.802 221.417 309.165C222.418 308.088 220.805 306.467 219.8 307.548C212.923 314.943 209.094 323.838 212.066 333.874C212.685 335.965 213.81 339.457 216.601 339.231C219.738 338.976 220.421 334.249 220.902 331.991C221.207 330.555 219.003 329.942 218.697 331.383Z" fill="#FE6A86"/>
<path d="M162.976 323.076C165.941 330.824 159.319 339.345 150.93 336.16C143.48 333.33 143.132 323.944 148.969 319.315C150.121 318.402 148.493 316.793 147.352 317.698C140.003 323.526 141.386 335.55 150.708 338.542C160.61 341.719 168.714 331.705 165.18 322.468C164.661 321.107 162.449 321.698 162.976 323.076Z" fill="#FE6A86"/>
<path d="M163.767 323.898C167.182 324.814 170.598 325.728 174.013 326.644C175.436 327.025 176.043 324.82 174.621 324.439C171.206 323.523 167.79 322.609 164.375 321.693C162.952 321.313 162.345 323.518 163.767 323.898Z" fill="#FE6A86"/>
<path d="M139.936 308.218C152.072 311.47 164.208 314.721 176.344 317.974C177.768 318.355 178.374 316.15 176.953 315.769C164.816 312.516 152.68 309.265 140.544 306.013C139.12 305.632 138.513 307.837 139.936 308.218Z" fill="#FE6A86"/>
<path d="M137.607 316.867C141.022 317.783 144.438 318.697 147.853 319.613C149.276 319.994 149.883 317.789 148.461 317.408C145.046 316.492 141.63 315.578 138.215 314.662C136.792 314.282 136.185 316.487 137.607 316.867Z" fill="#FE6A86"/>
<path d="M90.4619 302.875C88.9986 303.246 87.5984 303.581 86.0948 303.72C85.0806 303.895 84.0627 303.9 83.0411 303.734C83.2259 302.229 83.4097 300.723 83.5944 299.217C83.8606 298.687 84.6379 298.174 85.0605 297.751C87.0899 295.722 89.1184 293.693 91.1478 291.664C94.3323 288.479 97.5177 285.295 100.702 282.109C101.744 281.068 100.128 279.451 99.0853 280.492C94.0177 285.56 88.9501 290.628 83.8834 295.694C81.8184 297.759 78.4628 300.68 79.9618 303.993C81.6775 307.783 88.1837 305.811 91.0701 305.079C92.4949 304.717 91.8913 302.511 90.4619 302.875Z" fill="#FE6A86"/>
<path d="M88.9374 310.161C88.5624 308.38 90.3056 306.298 91.3958 304.961C91.9847 304.239 92.7575 303.599 93.4142 302.942C95.3695 300.987 97.3239 299.033 99.2793 297.077C102.01 294.347 104.742 291.615 107.473 288.884C108.514 287.842 106.898 286.225 105.856 287.267C102.253 290.869 98.651 294.472 95.0485 298.074C91.7195 301.404 85.6148 305.458 86.7324 310.768C87.036 312.208 89.2401 311.599 88.9374 310.161Z" fill="#FE6A86"/>
<path d="M83.6895 296.092C81.7315 296.588 78.1848 297.887 76.2688 296.95C72.4468 295.084 76.6657 292.888 77.5446 291.711C78.4473 290.503 79.7843 289.471 80.8471 288.408C83.9602 285.295 87.0734 282.182 90.1866 279.069C91.7532 277.502 93.9829 275.868 94.9002 273.768C96.2885 270.59 94.5344 267.127 92.1849 264.923C91.1121 263.917 89.4924 265.531 90.5679 266.54C94.8325 270.539 92.2809 273.74 89.1229 276.899C85.633 280.389 82.143 283.879 78.6521 287.37C76.3877 289.634 72.6828 292.302 72.9297 295.873C73.3001 301.241 81.1333 299.1 84.2968 298.297C85.7226 297.935 85.119 295.729 83.6895 296.092Z" fill="#FE6A86"/>
<path d="M86.925 262.7C87.3969 264.461 87.8688 266.222 88.3407 267.983C88.5639 268.816 89.6467 269.093 90.2512 268.488C91.5408 267.199 92.8294 265.91 94.1189 264.62C94.7244 264.015 94.4473 262.933 93.6141 262.71C91.8526 262.238 90.0921 261.766 88.3307 261.294C86.9076 260.913 86.3013 263.118 87.7225 263.499C89.4839 263.971 91.2445 264.443 93.0059 264.915C92.8376 264.278 92.6693 263.641 92.502 263.004C91.2124 264.294 89.9238 265.583 88.6343 266.872C89.2708 267.04 89.9083 267.209 90.5448 267.377C90.0729 265.615 89.601 263.855 89.1291 262.093C88.7495 260.672 86.5436 261.274 86.925 262.7Z" fill="#FE6A86"/>
<path d="M70.8327 233.733C60.5905 227.82 50.3493 221.907 40.1071 215.994C38.8304 215.257 37.6781 217.232 38.953 217.969C49.1951 223.882 59.4364 229.795 69.6785 235.707C70.9553 236.445 72.1085 234.47 70.8327 233.733Z" fill="#FE6A86"/>
<path d="M44.8398 232.342C43.4387 227.114 42.0385 221.886 40.6374 216.658C40.3712 217.127 40.1051 217.596 39.839 218.065C45.0666 216.664 50.2951 215.264 55.5228 213.862C56.9422 213.482 56.3404 211.276 54.9146 211.657C49.6869 213.059 44.4584 214.459 39.2308 215.86C38.6308 216.021 38.2732 216.671 38.4324 217.266C39.8335 222.494 41.2337 227.723 42.6348 232.95C43.0161 234.37 45.2221 233.768 44.8398 232.342Z" fill="#FE6A86"/>
<path d="M57.0486 236.661C59.8088 231.88 62.5689 227.099 65.33 222.318C66.0671 221.041 64.0917 219.889 63.3555 221.164C60.5953 225.945 57.8352 230.726 55.0741 235.507C54.337 236.784 56.3124 237.936 57.0486 236.661Z" fill="#FE6A86"/>
<path d="M39.3797 168.696C42.362 160.696 54.8522 166.662 60.7392 168.283C62.1595 168.673 62.7659 166.468 61.3474 166.078C53.7977 164 41.0807 157.611 37.1747 168.089C36.6607 169.469 38.8693 170.065 39.3797 168.696Z" fill="#FE6A86"/>
<path d="M46.9499 162.276C44.9323 160.864 42.4648 158.916 43.2093 156.263C44.0342 153.326 47.0751 153.999 49.4356 154.51C51.497 154.956 53.5329 155.607 55.5714 156.154C59.3129 157.157 63.3635 158.903 67.297 158.287C74.1599 157.211 80.0999 148.461 73.7483 142.873C67.4955 137.373 59.4144 144.624 61.3798 151.769C62.1663 154.628 64.4244 156.708 66.7227 158.419C68.4557 159.707 74.3528 162.298 73.8123 164.976C73.5224 166.413 75.7256 167.027 76.0173 165.584C76.8962 161.234 71.3833 158.966 68.5335 156.918C65.4679 154.715 62.426 151.7 63.6378 147.558C65.8904 139.862 75.6963 143.905 73.7776 150.679C72.9042 153.76 69.8697 155.601 66.8498 156.017C62.8687 156.565 58.2502 154.505 54.4401 153.484C51.3416 152.653 47.6166 151.042 44.4037 152.03C37.1942 154.245 41.7698 161.434 45.7966 164.252C47.0038 165.096 48.1479 163.115 46.9499 162.276Z" fill="#FE6A86"/>
<path d="M100.24 78.023C96.6877 77.264 93.1364 76.504 89.5843 75.7449C88.7081 75.5574 87.9902 76.2744 88.1777 77.1515C88.9377 80.7027 89.6977 84.2539 90.4568 87.8061C90.9259 87.3369 91.3942 86.8687 91.8634 86.3995C88.3121 85.6395 84.76 84.8804 81.2087 84.1204C80.3317 83.9329 79.6156 84.6499 79.8021 85.527C80.5603 89.0801 81.3194 92.6332 82.0776 96.1853C82.5467 95.7161 83.015 95.2479 83.4841 94.7787C79.9302 94.0215 76.3762 93.2642 72.8231 92.506C71.946 92.3195 71.2299 93.0356 71.4165 93.9126C72.1738 97.4666 72.9319 101.021 73.6892 104.574C73.9956 106.012 76.2006 105.403 75.8942 103.965C75.137 100.411 74.3788 96.8575 73.6215 93.3044C73.1533 93.7736 72.6841 94.2419 72.2149 94.711C75.7689 95.4683 79.3229 96.2265 82.876 96.9837C83.7521 97.1703 84.4691 96.4542 84.2826 95.5771C83.5244 92.0241 82.7653 88.471 82.0071 84.9188C81.5389 85.388 81.0697 85.8563 80.6005 86.3254C84.1518 87.0854 87.7039 87.8445 91.2552 88.6045C92.1313 88.792 92.8493 88.075 92.6618 87.1979C91.9018 83.6467 91.1418 80.0954 90.3827 76.5433C89.9135 77.0115 89.4453 77.4807 88.9761 77.9499C92.5282 78.709 96.0795 79.469 99.6316 80.2281C101.067 80.5344 101.68 78.3313 100.24 78.023Z" fill="#FE6A86"/>
<path d="M109.689 87.4723C106.137 86.7132 102.586 85.9532 99.0335 85.1941C98.1573 85.0066 97.4394 85.7236 97.6269 86.6007C98.3869 90.1519 99.1469 93.7032 99.906 97.2553C100.375 96.7862 100.843 96.3179 101.313 95.8487C97.7613 95.0887 94.2092 94.3296 90.6579 93.5696C89.7818 93.3822 89.0648 94.0992 89.2513 94.9762C90.0095 98.5293 90.7686 102.082 91.5268 105.635C91.9959 105.165 92.4642 104.697 92.9334 104.228C89.3794 103.471 85.8254 102.713 82.2723 101.955C81.3953 101.769 80.6792 102.485 80.8657 103.362C81.623 106.916 82.3802 110.47 83.1384 114.023C83.4448 115.461 85.6498 114.852 85.3434 113.415C84.5862 109.861 83.8289 106.307 83.0707 102.754C82.6025 103.222 82.1333 103.691 81.6641 104.16C85.2181 104.918 88.7721 105.676 92.3252 106.433C93.2013 106.62 93.9183 105.903 93.7318 105.026C92.9736 101.473 92.2145 97.9211 91.4564 94.3681C90.9872 94.8372 90.5189 95.3055 90.0498 95.7746C93.601 96.5346 97.1532 97.2937 100.704 98.0537C101.581 98.2412 102.298 97.5242 102.111 96.6471C101.351 93.0959 100.591 89.5447 99.831 85.9925C99.3627 86.4608 98.8936 86.9299 98.4244 87.3991C101.977 88.1582 105.528 88.9182 109.08 89.6773C110.516 89.9846 111.129 87.7805 109.689 87.4723Z" fill="#FE6A86"/>
<path d="M190.635 104.17L115.766 233.848H265.505L190.635 104.17Z" stroke="#FE6A86" stroke-width="1.25" stroke-miterlimit="10"/>
<path d="M190.635 277.624L265.505 147.944H115.766L190.635 277.624Z" stroke="#FE6A86" stroke-width="1.25" stroke-miterlimit="10"/>
<path d="M147.266 115.798V265.538L276.945 190.667L147.266 115.798Z" stroke="#FE6A86" stroke-width="1.25" stroke-miterlimit="10"/>
<path d="M233.984 265.99V116.25L104.305 191.121L233.984 265.99Z" stroke="#FE6A86" stroke-width="1.25" stroke-miterlimit="10"/>
</g>
</svg>
