<svg width="10" height="10" viewBox="0 0 10 10" fill="none" xmlns="http://www.w3.org/2000/svg">
<path d="M4.51642 0.330808C4.67278 -0.115371 5.30378 -0.115372 5.46014 0.330807L6.46579 3.20037C6.51606 3.34381 6.62885 3.45659 6.77229 3.50686L9.64185 4.51251C10.088 4.66888 10.088 5.29987 9.64185 5.45624L6.77229 6.46189C6.62885 6.51216 6.51606 6.62494 6.46579 6.76838L5.46014 9.63794C5.30378 10.0841 4.67278 10.0841 4.51642 9.63794L3.51077 6.76838C3.4605 6.62494 3.34771 6.51216 3.20427 6.46189L0.334714 5.45624C-0.111464 5.29987 -0.111465 4.66888 0.334713 4.51251L3.20427 3.50686C3.34771 3.45659 3.4605 3.34381 3.51077 3.20037L4.51642 0.330808Z" fill="#FF8936"/>
</svg>
